<mxfile host="app.diagrams.net" agent="Mozilla/5.0 (Windows NT 10.0; Win64; x64) AppleWebKit/537.36 (KHTML, like Gecko) Chrome/133.0.0.0 Safari/537.36 Edg/133.0.0.0" version="26.0.14">
  <diagram name="Page-1" id="e56a1550-8fbb-45ad-956c-1786394a9013">
    <mxGraphModel dx="1042" dy="2239" grid="1" gridSize="10" guides="1" tooltips="1" connect="1" arrows="1" fold="1" page="1" pageScale="1" pageWidth="1100" pageHeight="850" background="none" math="0" shadow="0">
      <root>
        <mxCell id="0" />
        <mxCell id="1" parent="0" />
        <UserObject label="" mermaidData="{&#xa;  &quot;data&quot;: &quot;erDiagram\n    USER {\n        INT id PK\n        VARCHAR name \&quot;100\&quot;\n        VARCHAR email \&quot;100 UNIQUE\&quot;\n        VARCHAR password \&quot;100\&quot;\n    }\n\n    BUSINESS {\n        INT id PK\n        INT user_id FK\n        VARCHAR name \&quot;100 UNIQUE\&quot;\n        TEXT description\n        VARCHAR image\n        VARCHAR phone\n        VARCHAR email \&quot;UNIQUE\&quot;\n        ENUM status \&quot;(aprobado | rechazado | pendiente) DEFAULT pendiente\&quot;\n        VARCHAR status_description \&quot;NULLABLE\&quot;\n        DOUBLE longitude\n        DOUBLE latitude\n    }\n\n\n    PROMOTION {\n        INT id PK\n        INT business_id FK\n        INT category_id FK\n        VARCHAR title \&quot;100\&quot;\n        VARCHAR slug \&quot;UNIQUE\&quot;\n        TEXT description\n        VARCHAR image\n        DATE start_date\n        DATE end_date\n    }\n\n    CATEGORY {\n        TINYINT id PK\n        VARCHAR name \&quot;50 UNIQUE\&quot;\n    }\n\n    RATING {\n        INT id PK\n        INT user_id FK\n        INT business_id FK\n        TINYINT stars \n        VARCHAR comment\n    }\n\n    BUSINESS_TYPE {\n        INT business_id PK, FK\n        INT type_id PK, FK\n    }\n\n    TYPE {\n        TINYINT id PK\n        VARCHAR name \&quot;50 UNIQUE\&quot;\n    }\n\n    USER ||--o{ BUSINESS : \&quot;\&quot;\n    BUSINESS ||--o{ PROMOTION : \&quot;\&quot;\n    PROMOTION }o--|| CATEGORY : \&quot;\&quot;\n    BUSINESS ||--o{ RATING : \&quot;\&quot;\n    USER ||--o{ RATING : \&quot;\&quot;\n    BUSINESS ||--o{ BUSINESS_TYPE : \&quot;\&quot;\n    BUSINESS_TYPE }o--|| TYPE : \&quot;\&quot;\n&quot;&#xa;}" id="sktjXQE0wuo4-elFe-ET-221">
          <mxCell style="shape=image;noLabel=1;verticalAlign=top;imageAspect=1;image=data:image/svg+xml,PHN2ZyBhcmlhLXJvbGVkZXNjcmlwdGlvbj0iZXIiIHJvbGU9ImdyYXBoaWNzLWRvY3VtZW50IGRvY3VtZW50IiB2aWV3Qm94PSIwIDAgODYxLjcxMDk5ODUzNTE1NjIgMTAwNy4yMDAwMTIyMDcwMzEyIiBzdHlsZT0ibWF4LXdpZHRoOiA4NjEuNzEwOTk4NTM1MTU2MnB4OyIgeG1sbnM9Imh0dHA6Ly93d3cudzMub3JnLzIwMDAvc3ZnIiB3aWR0aD0iMTAwJSIgaWQ9ImdlTWVybWFpZE91dHB1dC0xNzM5ODAwNDQwMDI1Ij48c3R5bGU+I2dlTWVybWFpZE91dHB1dC0xNzM5ODAwNDQwMDI1e2ZvbnQtZmFtaWx5OiJ0cmVidWNoZXQgbXMiLHZlcmRhbmEsYXJpYWwsc2Fucy1zZXJpZjtmb250LXNpemU6MTZweDtmaWxsOiNjY2M7fSNnZU1lcm1haWRPdXRwdXQtMTczOTgwMDQ0MDAyNSAuZXJyb3ItaWNvbntmaWxsOiNhNDQxNDE7fSNnZU1lcm1haWRPdXRwdXQtMTczOTgwMDQ0MDAyNSAuZXJyb3ItdGV4dHtmaWxsOiNkZGQ7c3Ryb2tlOiNkZGQ7fSNnZU1lcm1haWRPdXRwdXQtMTczOTgwMDQ0MDAyNSAuZWRnZS10aGlja25lc3Mtbm9ybWFse3N0cm9rZS13aWR0aDoxcHg7fSNnZU1lcm1haWRPdXRwdXQtMTczOTgwMDQ0MDAyNSAuZWRnZS10aGlja25lc3MtdGhpY2t7c3Ryb2tlLXdpZHRoOjMuNXB4O30jZ2VNZXJtYWlkT3V0cHV0LTE3Mzk4MDA0NDAwMjUgLmVkZ2UtcGF0dGVybi1zb2xpZHtzdHJva2UtZGFzaGFycmF5OjA7fSNnZU1lcm1haWRPdXRwdXQtMTczOTgwMDQ0MDAyNSAuZWRnZS10aGlja25lc3MtaW52aXNpYmxle3N0cm9rZS13aWR0aDowO2ZpbGw6bm9uZTt9I2dlTWVybWFpZE91dHB1dC0xNzM5ODAwNDQwMDI1IC5lZGdlLXBhdHRlcm4tZGFzaGVke3N0cm9rZS1kYXNoYXJyYXk6Mzt9I2dlTWVybWFpZE91dHB1dC0xNzM5ODAwNDQwMDI1IC5lZGdlLXBhdHRlcm4tZG90dGVke3N0cm9rZS1kYXNoYXJyYXk6Mjt9I2dlTWVybWFpZE91dHB1dC0xNzM5ODAwNDQwMDI1IC5tYXJrZXJ7ZmlsbDpsaWdodGdyZXk7c3Ryb2tlOmxpZ2h0Z3JleTt9I2dlTWVybWFpZE91dHB1dC0xNzM5ODAwNDQwMDI1IC5tYXJrZXIuY3Jvc3N7c3Ryb2tlOmxpZ2h0Z3JleTt9I2dlTWVybWFpZE91dHB1dC0xNzM5ODAwNDQwMDI1IHN2Z3tmb250LWZhbWlseToidHJlYnVjaGV0IG1zIix2ZXJkYW5hLGFyaWFsLHNhbnMtc2VyaWY7Zm9udC1zaXplOjE2cHg7fSNnZU1lcm1haWRPdXRwdXQtMTczOTgwMDQ0MDAyNSBwe21hcmdpbjowO30jZ2VNZXJtYWlkT3V0cHV0LTE3Mzk4MDA0NDAwMjUgLmVudGl0eUJveHtmaWxsOiMxZjIwMjA7c3Ryb2tlOiNjY2M7fSNnZU1lcm1haWRPdXRwdXQtMTczOTgwMDQ0MDAyNSAuYXR0cmlidXRlQm94T2Rke2ZpbGw6aHNsKDAsIDAlLCAzMiUpO3N0cm9rZTojY2NjO30jZ2VNZXJtYWlkT3V0cHV0LTE3Mzk4MDA0NDAwMjUgLmF0dHJpYnV0ZUJveEV2ZW57ZmlsbDpoc2woMCwgMCUsIDIyJSk7c3Ryb2tlOiNjY2M7fSNnZU1lcm1haWRPdXRwdXQtMTczOTgwMDQ0MDAyNSAucmVsYXRpb25zaGlwTGFiZWxCb3h7ZmlsbDpoc2woMjAsIDEuNTg3MzAxNTg3MyUsIDEyLjM1Mjk0MTE3NjUlKTtvcGFjaXR5OjAuNztiYWNrZ3JvdW5kLWNvbG9yOmhzbCgyMCwgMS41ODczMDE1ODczJSwgMTIuMzUyOTQxMTc2NSUpO30jZ2VNZXJtYWlkT3V0cHV0LTE3Mzk4MDA0NDAwMjUgLnJlbGF0aW9uc2hpcExhYmVsQm94IHJlY3R7b3BhY2l0eTowLjU7fSNnZU1lcm1haWRPdXRwdXQtMTczOTgwMDQ0MDAyNSAucmVsYXRpb25zaGlwTGluZXtzdHJva2U6bGlnaHRncmV5O30jZ2VNZXJtYWlkT3V0cHV0LTE3Mzk4MDA0NDAwMjUgLmVudGl0eVRpdGxlVGV4dHt0ZXh0LWFuY2hvcjptaWRkbGU7Zm9udC1zaXplOjE4cHg7ZmlsbDojY2NjO30jZ2VNZXJtYWlkT3V0cHV0LTE3Mzk4MDA0NDAwMjUgI01EX1BBUkVOVF9TVEFSVHtmaWxsOiNmNWY1ZjUhaW1wb3J0YW50O3N0cm9rZTpsaWdodGdyZXkhaW1wb3J0YW50O3N0cm9rZS13aWR0aDoxO30jZ2VNZXJtYWlkT3V0cHV0LTE3Mzk4MDA0NDAwMjUgI01EX1BBUkVOVF9FTkR7ZmlsbDojZjVmNWY1IWltcG9ydGFudDtzdHJva2U6bGlnaHRncmV5IWltcG9ydGFudDtzdHJva2Utd2lkdGg6MTt9I2dlTWVybWFpZE91dHB1dC0xNzM5ODAwNDQwMDI1IDpyb290ey0tbWVybWFpZC1mb250LWZhbWlseToidHJlYnVjaGV0IG1zIix2ZXJkYW5hLGFyaWFsLHNhbnMtc2VyaWY7fTwvc3R5bGU+PGc+PC9nPjxkZWZzPjxtYXJrZXIgb3JpZW50PSJhdXRvIiBtYXJrZXJIZWlnaHQ9IjI0MCIgbWFya2VyV2lkdGg9IjE5MCIgcmVmWT0iNyIgcmVmWD0iMCIgaWQ9Ik1EX1BBUkVOVF9TVEFSVCI+PHBhdGggZD0iTSAxOCw3IEw5LDEzIEwxLDcgTDksMSBaIj48L3BhdGg+PC9tYXJrZXI+PC9kZWZzPjxkZWZzPjxtYXJrZXIgb3JpZW50PSJhdXRvIiBtYXJrZXJIZWlnaHQ9IjI4IiBtYXJrZXJXaWR0aD0iMjAiIHJlZlk9IjciIHJlZlg9IjE5IiBpZD0iTURfUEFSRU5UX0VORCI+PHBhdGggZD0iTSAxOCw3IEw5LDEzIEwxLDcgTDksMSBaIj48L3BhdGg+PC9tYXJrZXI+PC9kZWZzPjxkZWZzPjxtYXJrZXIgb3JpZW50PSJhdXRvIiBtYXJrZXJIZWlnaHQ9IjE4IiBtYXJrZXJXaWR0aD0iMTgiIHJlZlk9IjkiIHJlZlg9IjAiIGlkPSJPTkxZX09ORV9TVEFSVCI+PHBhdGggZD0iTTksMCBMOSwxOCBNMTUsMCBMMTUsMTgiIGZpbGw9Im5vbmUiIHN0cm9rZT0iZ3JheSI+PC9wYXRoPjwvbWFya2VyPjwvZGVmcz48ZGVmcz48bWFya2VyIG9yaWVudD0iYXV0byIgbWFya2VySGVpZ2h0PSIxOCIgbWFya2VyV2lkdGg9IjE4IiByZWZZPSI5IiByZWZYPSIxOCIgaWQ9Ik9OTFlfT05FX0VORCI+PHBhdGggZD0iTTMsMCBMMywxOCBNOSwwIEw5LDE4IiBmaWxsPSJub25lIiBzdHJva2U9ImdyYXkiPjwvcGF0aD48L21hcmtlcj48L2RlZnM+PGRlZnM+PG1hcmtlciBvcmllbnQ9ImF1dG8iIG1hcmtlckhlaWdodD0iMTgiIG1hcmtlcldpZHRoPSIzMCIgcmVmWT0iOSIgcmVmWD0iMCIgaWQ9IlpFUk9fT1JfT05FX1NUQVJUIj48Y2lyY2xlIHI9IjYiIGN5PSI5IiBjeD0iMjEiIGZpbGw9IndoaXRlIiBzdHJva2U9ImdyYXkiPjwvY2lyY2xlPjxwYXRoIGQ9Ik05LDAgTDksMTgiIGZpbGw9Im5vbmUiIHN0cm9rZT0iZ3JheSI+PC9wYXRoPjwvbWFya2VyPjwvZGVmcz48ZGVmcz48bWFya2VyIG9yaWVudD0iYXV0byIgbWFya2VySGVpZ2h0PSIxOCIgbWFya2VyV2lkdGg9IjMwIiByZWZZPSI5IiByZWZYPSIzMCIgaWQ9IlpFUk9fT1JfT05FX0VORCI+PGNpcmNsZSByPSI2IiBjeT0iOSIgY3g9IjkiIGZpbGw9IndoaXRlIiBzdHJva2U9ImdyYXkiPjwvY2lyY2xlPjxwYXRoIGQ9Ik0yMSwwIEwyMSwxOCIgZmlsbD0ibm9uZSIgc3Ryb2tlPSJncmF5Ij48L3BhdGg+PC9tYXJrZXI+PC9kZWZzPjxkZWZzPjxtYXJrZXIgb3JpZW50PSJhdXRvIiBtYXJrZXJIZWlnaHQ9IjM2IiBtYXJrZXJXaWR0aD0iNDUiIHJlZlk9IjE4IiByZWZYPSIxOCIgaWQ9Ik9ORV9PUl9NT1JFX1NUQVJUIj48cGF0aCBkPSJNMCwxOCBRIDE4LDAgMzYsMTggUSAxOCwzNiAwLDE4IE00Miw5IEw0MiwyNyIgZmlsbD0ibm9uZSIgc3Ryb2tlPSJncmF5Ij48L3BhdGg+PC9tYXJrZXI+PC9kZWZzPjxkZWZzPjxtYXJrZXIgb3JpZW50PSJhdXRvIiBtYXJrZXJIZWlnaHQ9IjM2IiBtYXJrZXJXaWR0aD0iNDUiIHJlZlk9IjE4IiByZWZYPSIyNyIgaWQ9Ik9ORV9PUl9NT1JFX0VORCI+PHBhdGggZD0iTTMsOSBMMywyNyBNOSwxOCBRMjcsMCA0NSwxOCBRMjcsMzYgOSwxOCIgZmlsbD0ibm9uZSIgc3Ryb2tlPSJncmF5Ij48L3BhdGg+PC9tYXJrZXI+PC9kZWZzPjxkZWZzPjxtYXJrZXIgb3JpZW50PSJhdXRvIiBtYXJrZXJIZWlnaHQ9IjM2IiBtYXJrZXJXaWR0aD0iNTciIHJlZlk9IjE4IiByZWZYPSIxOCIgaWQ9IlpFUk9fT1JfTU9SRV9TVEFSVCI+PGNpcmNsZSByPSI2IiBjeT0iMTgiIGN4PSI0OCIgZmlsbD0id2hpdGUiIHN0cm9rZT0iZ3JheSI+PC9jaXJjbGU+PHBhdGggZD0iTTAsMTggUTE4LDAgMzYsMTggUTE4LDM2IDAsMTgiIGZpbGw9Im5vbmUiIHN0cm9rZT0iZ3JheSI+PC9wYXRoPjwvbWFya2VyPjwvZGVmcz48ZGVmcz48bWFya2VyIG9yaWVudD0iYXV0byIgbWFya2VySGVpZ2h0PSIzNiIgbWFya2VyV2lkdGg9IjU3IiByZWZZPSIxOCIgcmVmWD0iMzkiIGlkPSJaRVJPX09SX01PUkVfRU5EIj48Y2lyY2xlIHI9IjYiIGN5PSIxOCIgY3g9IjkiIGZpbGw9IndoaXRlIiBzdHJva2U9ImdyYXkiPjwvY2lyY2xlPjxwYXRoIGQ9Ik0yMSwxOCBRMzksMCA1NywxOCBRMzksMzYgMjEsMTgiIGZpbGw9Im5vbmUiIHN0cm9rZT0iZ3JheSI+PC9wYXRoPjwvbWFya2VyPjwvZGVmcz48cGF0aCBzdHlsZT0ic3Ryb2tlOiBncmF5OyBmaWxsOiBub25lOyIgbWFya2VyLXN0YXJ0PSJ1cmwoI09OTFlfT05FX1NUQVJUKSIgbWFya2VyLWVuZD0idXJsKCNaRVJPX09SX01PUkVfRU5EKSIgZD0iTTQzMS4xNzUsMTEwLjhMMzk4Ljk0NywxMjIuNkMzNjYuNzE5LDEzNC40LDMwMi4yNjQsMTU4LDI3MC4wMzYsMTc4LjEzM0MyMzcuODA4LDE5OC4yNjcsMjM3LjgwOCwyMTQuOTMzLDIzNy44MDgsMjIzLjI2N0wyMzcuODA4LDIzMS42IiBjbGFzcz0iZXIgcmVsYXRpb25zaGlwTGluZSI+PC9wYXRoPjxwYXRoIHN0eWxlPSJzdHJva2U6IGdyYXk7IGZpbGw6IG5vbmU7IiBtYXJrZXItc3RhcnQ9InVybCgjT05MWV9PTkVfU1RBUlQpIiBtYXJrZXItZW5kPSJ1cmwoI1pFUk9fT1JfTU9SRV9FTkQpIiBkPSJNMjAxLjQ1NCw0OThMMTk5LjE4LDUwNi4zMzNDMTk2LjkwNSw1MTQuNjY3LDE5Mi4zNTcsNTMxLjMzMywxOTAuMDgyLDU0OEMxODcuODA4LDU2NC42NjcsMTg3LjgwOCw1ODEuMzMzLDE4Ny44MDgsNTg5LjY2N0wxODcuODA4LDU5OCIgY2xhc3M9ImVyIHJlbGF0aW9uc2hpcExpbmUiPjwvcGF0aD48cGF0aCBzdHlsZT0ic3Ryb2tlOiBncmF5OyBmaWxsOiBub25lOyIgbWFya2VyLXN0YXJ0PSJ1cmwoI1pFUk9fT1JfTU9SRV9TVEFSVCkiIG1hcmtlci1lbmQ9InVybCgjT05MWV9PTkVfRU5EKSIgZD0iTTE4Ny44MDgsODE5LjZMMTg3LjgwOCw4MjcuOTMzQzE4Ny44MDgsODM2LjI2NywxODcuODA4LDg1Mi45MzMsMTg3LjgwOCw4NjkuNkMxODcuODA4LDg4Ni4yNjcsMTg3LjgwOCw5MDIuOTMzLDE4Ny44MDgsOTExLjI2N0wxODcuODA4LDkxOS42IiBjbGFzcz0iZXIgcmVsYXRpb25zaGlwTGluZSI+PC9wYXRoPjxwYXRoIHN0eWxlPSJzdHJva2U6IGdyYXk7IGZpbGw6IG5vbmU7IiBtYXJrZXItc3RhcnQ9InVybCgjT05MWV9PTkVfU1RBUlQpIiBtYXJrZXItZW5kPSJ1cmwoI1pFUk9fT1JfTU9SRV9FTkQpIiBkPSJNMzMyLjM2OCw0OThMMzM4LjI4NCw1MDYuMzMzQzM0NC4yLDUxNC42NjcsMzU2LjAzMiw1MzEuMzMzLDM3Ny40Myw1NTUuMzMzQzM5OC44MjcsNTc5LjMzMyw0MjkuNzkxLDYxMC42NjcsNDQ1LjI3Myw2MjYuMzMzTDQ2MC43NTUsNjQyIiBjbGFzcz0iZXIgcmVsYXRpb25zaGlwTGluZSI+PC9wYXRoPjxwYXRoIHN0eWxlPSJzdHJva2U6IGdyYXk7IGZpbGw6IG5vbmU7IiBtYXJrZXItc3RhcnQ9InVybCgjT05MWV9PTkVfU1RBUlQpIiBtYXJrZXItZW5kPSJ1cmwoI1pFUk9fT1JfTU9SRV9FTkQpIiBkPSJNNTYxLjE5LDEzMS42TDU2Ni4zMywxMzkuOTMzQzU3MS40NzEsMTQ4LjI2Nyw1ODEuNzUyLDE2NC45MzMsNTg2Ljg5MywyMDMuOEM1OTIuMDM0LDI0Mi42NjcsNTkyLjAzNCwzMDMuNzMzLDU5Mi4wMzQsMzY0LjhDNTkyLjAzNCw0MjUuODY3LDU5Mi4wMzQsNDg2LjkzMyw1ODUuNjc1LDUzMy4xMzNDNTc5LjMxNiw1NzkuMzMzLDU2Ni41OTgsNjEwLjY2Nyw1NjAuMjM5LDYyNi4zMzNMNTUzLjg4MSw2NDIiIGNsYXNzPSJlciByZWxhdGlvbnNoaXBMaW5lIj48L3BhdGg+PHBhdGggc3R5bGU9InN0cm9rZTogZ3JheTsgZmlsbDogbm9uZTsiIG1hcmtlci1zdGFydD0idXJsKCNPTkxZX09ORV9TVEFSVCkiIG1hcmtlci1lbmQ9InVybCgjWkVST19PUl9NT1JFX0VORCkiIGQ9Ik00NTUuNjE2LDQ0MS42MUw1MDUuODk3LDQ1OS4zNDJDNTU2LjE3Nyw0NzcuMDc0LDY1Ni43MzksNTEyLjUzNyw3MDcuMDE5LDU1MS40MzVDNzU3LjMsNTkwLjMzMyw3NTcuMyw2MzIuNjY3LDc1Ny4zLDY1My44MzNMNzU3LjMsNjc1IiBjbGFzcz0iZXIgcmVsYXRpb25zaGlwTGluZSI+PC9wYXRoPjxwYXRoIHN0eWxlPSJzdHJva2U6IGdyYXk7IGZpbGw6IG5vbmU7IiBtYXJrZXItc3RhcnQ9InVybCgjWkVST19PUl9NT1JFX1NUQVJUKSIgbWFya2VyLWVuZD0idXJsKCNPTkxZX09ORV9FTkQpIiBkPSJNNzU3LjMsNzQyLjZMNzU3LjMsNzYzLjc2N0M3NTcuMyw3ODQuOTMzLDc1Ny4zLDgyNy4yNjcsNzU3LjMsODU2Ljc2N0M3NTcuMyw4ODYuMjY3LDc1Ny4zLDkwMi45MzMsNzU3LjMsOTExLjI2N0w3NTcuMyw5MTkuNiIgY2xhc3M9ImVyIHJlbGF0aW9uc2hpcExpbmUiPjwvcGF0aD48ZyB0cmFuc2Zvcm09InRyYW5zbGF0ZSg0MzEuMTc1MTE3NDkyNjc1OCwyMCApIiBpZD0iZW50aXR5LVVTRVItNmU3ZTI5NjItMGM2Zi01NzdkLWE3ZmQtMmNlM2EwY2ZkMmM4Ij48cmVjdCBoZWlnaHQ9IjExMS42MDAwMDAzODE0Njk3MyIgd2lkdGg9IjE5MS4xODQ2Njg1NDA5NTQ2IiB5PSIwIiB4PSIwIiBjbGFzcz0iZXIgZW50aXR5Qm94Ij48L3JlY3Q+PHRleHQgdHJhbnNmb3JtPSJ0cmFuc2xhdGUoOTUuNTkyMzM0MjcwNDc3MywxMS44MDAwMDAxOTA3MzQ4NjMpIiBzdHlsZT0iZG9taW5hbnQtYmFzZWxpbmU6IG1pZGRsZTsgdGV4dC1hbmNob3I6IG1pZGRsZTsgZm9udC1zaXplOiAxMnB4OyIgeT0iMCIgeD0iMCIgaWQ9InRleHQtZW50aXR5LVVTRVItNmU3ZTI5NjItMGM2Zi01NzdkLWE3ZmQtMmNlM2EwY2ZkMmM4IiBjbGFzcz0iZXIgZW50aXR5TGFiZWwiPlVTRVI8L3RleHQ+PHJlY3QgaGVpZ2h0PSIyMiIgd2lkdGg9IjUyLjg5NTAxOTUzMTI1IiB5PSIyMy42MDAwMDAzODE0Njk3MjciIHg9IjAiIGNsYXNzPSJlciBhdHRyaWJ1dGVCb3hPZGQiPjwvcmVjdD48dGV4dCB0cmFuc2Zvcm09InRyYW5zbGF0ZSg1LDM0LjYwMDAwMDM4MTQ2OTczKSIgc3R5bGU9ImRvbWluYW50LWJhc2VsaW5lOiBtaWRkbGU7IGZvbnQtc2l6ZTogMTAuMnB4OyIgeT0iMCIgeD0iMCIgaWQ9InRleHQtZW50aXR5LVVTRVItNmU3ZTI5NjItMGM2Zi01NzdkLWE3ZmQtMmNlM2EwY2ZkMmM4LWF0dHItMS10eXBlIiBjbGFzcz0iZXIgZW50aXR5TGFiZWwiPklOVDwvdGV4dD48cmVjdCBoZWlnaHQ9IjIyIiB3aWR0aD0iNTIuMDEyNTAwNzYyOTM5NDUiIHk9IjIzLjYwMDAwMDM4MTQ2OTcyNyIgeD0iNTIuODk1MDE5NTMxMjUiIGNsYXNzPSJlciBhdHRyaWJ1dGVCb3hPZGQiPjwvcmVjdD48dGV4dCB0cmFuc2Zvcm09InRyYW5zbGF0ZSg1Ny44OTUwMTk1MzEyNSwzNC42MDAwMDAzODE0Njk3MykiIHN0eWxlPSJkb21pbmFudC1iYXNlbGluZTogbWlkZGxlOyBmb250LXNpemU6IDEwLjJweDsiIHk9IjAiIHg9IjAiIGlkPSJ0ZXh0LWVudGl0eS1VU0VSLTZlN2UyOTYyLTBjNmYtNTc3ZC1hN2ZkLTJjZTNhMGNmZDJjOC1hdHRyLTEtbmFtZSIgY2xhc3M9ImVyIGVudGl0eUxhYmVsIj5pZDwvdGV4dD48cmVjdCBoZWlnaHQ9IjIyIiB3aWR0aD0iMjIuMDg3Njk1MTIxNzY1MTM3IiB5PSIyMy42MDAwMDAzODE0Njk3MjciIHg9IjEwNC45MDc1MjAyOTQxODk0NSIgY2xhc3M9ImVyIGF0dHJpYnV0ZUJveE9kZCI+PC9yZWN0Pjx0ZXh0IHRyYW5zZm9ybT0idHJhbnNsYXRlKDEwOS45MDc1MjAyOTQxODk0NSwzNC42MDAwMDAzODE0Njk3MykiIHN0eWxlPSJkb21pbmFudC1iYXNlbGluZTogbWlkZGxlOyBmb250LXNpemU6IDEwLjJweDsiIHk9IjAiIHg9IjAiIGlkPSJ0ZXh0LWVudGl0eS1VU0VSLTZlN2UyOTYyLTBjNmYtNTc3ZC1hN2ZkLTJjZTNhMGNmZDJjOC1hdHRyLTEta2V5IiBjbGFzcz0iZXIgZW50aXR5TGFiZWwiPlBLPC90ZXh0PjxyZWN0IGhlaWdodD0iMjIiIHdpZHRoPSI2NC4xODk0NTMxMjUiIHk9IjIzLjYwMDAwMDM4MTQ2OTcyNyIgeD0iMTI2Ljk5NTIxNTQxNTk1NDU5IiBjbGFzcz0iZXIgYXR0cmlidXRlQm94T2RkIj48L3JlY3Q+PHRleHQgdHJhbnNmb3JtPSJ0cmFuc2xhdGUoMTMxLjk5NTIxNTQxNTk1NDYsMzQuNjAwMDAwMzgxNDY5NzMpIiBzdHlsZT0iZG9taW5hbnQtYmFzZWxpbmU6IG1pZGRsZTsgZm9udC1zaXplOiAxMC4ycHg7IiB5PSIwIiB4PSIwIiBpZD0idGV4dC1lbnRpdHktVVNFUi02ZTdlMjk2Mi0wYzZmLTU3N2QtYTdmZC0yY2UzYTBjZmQyYzgtYXR0ci0xLWNvbW1lbnQiIGNsYXNzPSJlciBlbnRpdHlMYWJlbCI+PC90ZXh0PjxyZWN0IGhlaWdodD0iMjIiIHdpZHRoPSI1Mi44OTUwMTk1MzEyNSIgeT0iNDUuNjAwMDAwMzgxNDY5NzMiIHg9IjAiIGNsYXNzPSJlciBhdHRyaWJ1dGVCb3hFdmVuIj48L3JlY3Q+PHRleHQgdHJhbnNmb3JtPSJ0cmFuc2xhdGUoNSw1Ni42MDAwMDAzODE0Njk3MykiIHN0eWxlPSJkb21pbmFudC1iYXNlbGluZTogbWlkZGxlOyBmb250LXNpemU6IDEwLjJweDsiIHk9IjAiIHg9IjAiIGlkPSJ0ZXh0LWVudGl0eS1VU0VSLTZlN2UyOTYyLTBjNmYtNTc3ZC1hN2ZkLTJjZTNhMGNmZDJjOC1hdHRyLTItdHlwZSIgY2xhc3M9ImVyIGVudGl0eUxhYmVsIj5WQVJDSEFSPC90ZXh0PjxyZWN0IGhlaWdodD0iMjIiIHdpZHRoPSI1Mi4wMTI1MDA3NjI5Mzk0NSIgeT0iNDUuNjAwMDAwMzgxNDY5NzMiIHg9IjUyLjg5NTAxOTUzMTI1IiBjbGFzcz0iZXIgYXR0cmlidXRlQm94RXZlbiI+PC9yZWN0Pjx0ZXh0IHRyYW5zZm9ybT0idHJhbnNsYXRlKDU3Ljg5NTAxOTUzMTI1LDU2LjYwMDAwMDM4MTQ2OTczKSIgc3R5bGU9ImRvbWluYW50LWJhc2VsaW5lOiBtaWRkbGU7IGZvbnQtc2l6ZTogMTAuMnB4OyIgeT0iMCIgeD0iMCIgaWQ9InRleHQtZW50aXR5LVVTRVItNmU3ZTI5NjItMGM2Zi01NzdkLWE3ZmQtMmNlM2EwY2ZkMmM4LWF0dHItMi1uYW1lIiBjbGFzcz0iZXIgZW50aXR5TGFiZWwiPm5hbWU8L3RleHQ+PHJlY3QgaGVpZ2h0PSIyMiIgd2lkdGg9IjIyLjA4NzY5NTEyMTc2NTEzNyIgeT0iNDUuNjAwMDAwMzgxNDY5NzMiIHg9IjEwNC45MDc1MjAyOTQxODk0NSIgY2xhc3M9ImVyIGF0dHJpYnV0ZUJveEV2ZW4iPjwvcmVjdD48dGV4dCB0cmFuc2Zvcm09InRyYW5zbGF0ZSgxMDkuOTA3NTIwMjk0MTg5NDUsNTYuNjAwMDAwMzgxNDY5NzMpIiBzdHlsZT0iZG9taW5hbnQtYmFzZWxpbmU6IG1pZGRsZTsgZm9udC1zaXplOiAxMC4ycHg7IiB5PSIwIiB4PSIwIiBpZD0idGV4dC1lbnRpdHktVVNFUi02ZTdlMjk2Mi0wYzZmLTU3N2QtYTdmZC0yY2UzYTBjZmQyYzgtYXR0ci0yLWtleSIgY2xhc3M9ImVyIGVudGl0eUxhYmVsIj48L3RleHQ+PHJlY3QgaGVpZ2h0PSIyMiIgd2lkdGg9IjY0LjE4OTQ1MzEyNSIgeT0iNDUuNjAwMDAwMzgxNDY5NzMiIHg9IjEyNi45OTUyMTU0MTU5NTQ1OSIgY2xhc3M9ImVyIGF0dHJpYnV0ZUJveEV2ZW4iPjwvcmVjdD48dGV4dCB0cmFuc2Zvcm09InRyYW5zbGF0ZSgxMzEuOTk1MjE1NDE1OTU0Niw1Ni42MDAwMDAzODE0Njk3MykiIHN0eWxlPSJkb21pbmFudC1iYXNlbGluZTogbWlkZGxlOyBmb250LXNpemU6IDEwLjJweDsiIHk9IjAiIHg9IjAiIGlkPSJ0ZXh0LWVudGl0eS1VU0VSLTZlN2UyOTYyLTBjNmYtNTc3ZC1hN2ZkLTJjZTNhMGNmZDJjOC1hdHRyLTItY29tbWVudCIgY2xhc3M9ImVyIGVudGl0eUxhYmVsIj4xMDA8L3RleHQ+PHJlY3QgaGVpZ2h0PSIyMiIgd2lkdGg9IjUyLjg5NTAxOTUzMTI1IiB5PSI2Ny42MDAwMDAzODE0Njk3MyIgeD0iMCIgY2xhc3M9ImVyIGF0dHJpYnV0ZUJveE9kZCI+PC9yZWN0Pjx0ZXh0IHRyYW5zZm9ybT0idHJhbnNsYXRlKDUsNzguNjAwMDAwMzgxNDY5NzMpIiBzdHlsZT0iZG9taW5hbnQtYmFzZWxpbmU6IG1pZGRsZTsgZm9udC1zaXplOiAxMC4ycHg7IiB5PSIwIiB4PSIwIiBpZD0idGV4dC1lbnRpdHktVVNFUi02ZTdlMjk2Mi0wYzZmLTU3N2QtYTdmZC0yY2UzYTBjZmQyYzgtYXR0ci0zLXR5cGUiIGNsYXNzPSJlciBlbnRpdHlMYWJlbCI+VkFSQ0hBUjwvdGV4dD48cmVjdCBoZWlnaHQ9IjIyIiB3aWR0aD0iNTIuMDEyNTAwNzYyOTM5NDUiIHk9IjY3LjYwMDAwMDM4MTQ2OTczIiB4PSI1Mi44OTUwMTk1MzEyNSIgY2xhc3M9ImVyIGF0dHJpYnV0ZUJveE9kZCI+PC9yZWN0Pjx0ZXh0IHRyYW5zZm9ybT0idHJhbnNsYXRlKDU3Ljg5NTAxOTUzMTI1LDc4LjYwMDAwMDM4MTQ2OTczKSIgc3R5bGU9ImRvbWluYW50LWJhc2VsaW5lOiBtaWRkbGU7IGZvbnQtc2l6ZTogMTAuMnB4OyIgeT0iMCIgeD0iMCIgaWQ9InRleHQtZW50aXR5LVVTRVItNmU3ZTI5NjItMGM2Zi01NzdkLWE3ZmQtMmNlM2EwY2ZkMmM4LWF0dHItMy1uYW1lIiBjbGFzcz0iZXIgZW50aXR5TGFiZWwiPmVtYWlsPC90ZXh0PjxyZWN0IGhlaWdodD0iMjIiIHdpZHRoPSIyMi4wODc2OTUxMjE3NjUxMzciIHk9IjY3LjYwMDAwMDM4MTQ2OTczIiB4PSIxMDQuOTA3NTIwMjk0MTg5NDUiIGNsYXNzPSJlciBhdHRyaWJ1dGVCb3hPZGQiPjwvcmVjdD48dGV4dCB0cmFuc2Zvcm09InRyYW5zbGF0ZSgxMDkuOTA3NTIwMjk0MTg5NDUsNzguNjAwMDAwMzgxNDY5NzMpIiBzdHlsZT0iZG9taW5hbnQtYmFzZWxpbmU6IG1pZGRsZTsgZm9udC1zaXplOiAxMC4ycHg7IiB5PSIwIiB4PSIwIiBpZD0idGV4dC1lbnRpdHktVVNFUi02ZTdlMjk2Mi0wYzZmLTU3N2QtYTdmZC0yY2UzYTBjZmQyYzgtYXR0ci0zLWtleSIgY2xhc3M9ImVyIGVudGl0eUxhYmVsIj48L3RleHQ+PHJlY3QgaGVpZ2h0PSIyMiIgd2lkdGg9IjY0LjE4OTQ1MzEyNSIgeT0iNjcuNjAwMDAwMzgxNDY5NzMiIHg9IjEyNi45OTUyMTU0MTU5NTQ1OSIgY2xhc3M9ImVyIGF0dHJpYnV0ZUJveE9kZCI+PC9yZWN0Pjx0ZXh0IHRyYW5zZm9ybT0idHJhbnNsYXRlKDEzMS45OTUyMTU0MTU5NTQ2LDc4LjYwMDAwMDM4MTQ2OTczKSIgc3R5bGU9ImRvbWluYW50LWJhc2VsaW5lOiBtaWRkbGU7IGZvbnQtc2l6ZTogMTAuMnB4OyIgeT0iMCIgeD0iMCIgaWQ9InRleHQtZW50aXR5LVVTRVItNmU3ZTI5NjItMGM2Zi01NzdkLWE3ZmQtMmNlM2EwY2ZkMmM4LWF0dHItMy1jb21tZW50IiBjbGFzcz0iZXIgZW50aXR5TGFiZWwiPjEwMCBVTklRVUU8L3RleHQ+PHJlY3QgaGVpZ2h0PSIyMiIgd2lkdGg9IjUyLjg5NTAxOTUzMTI1IiB5PSI4OS42MDAwMDAzODE0Njk3MyIgeD0iMCIgY2xhc3M9ImVyIGF0dHJpYnV0ZUJveEV2ZW4iPjwvcmVjdD48dGV4dCB0cmFuc2Zvcm09InRyYW5zbGF0ZSg1LDEwMC42MDAwMDAzODE0Njk3MykiIHN0eWxlPSJkb21pbmFudC1iYXNlbGluZTogbWlkZGxlOyBmb250LXNpemU6IDEwLjJweDsiIHk9IjAiIHg9IjAiIGlkPSJ0ZXh0LWVudGl0eS1VU0VSLTZlN2UyOTYyLTBjNmYtNTc3ZC1hN2ZkLTJjZTNhMGNmZDJjOC1hdHRyLTQtdHlwZSIgY2xhc3M9ImVyIGVudGl0eUxhYmVsIj5WQVJDSEFSPC90ZXh0PjxyZWN0IGhlaWdodD0iMjIiIHdpZHRoPSI1Mi4wMTI1MDA3NjI5Mzk0NSIgeT0iODkuNjAwMDAwMzgxNDY5NzMiIHg9IjUyLjg5NTAxOTUzMTI1IiBjbGFzcz0iZXIgYXR0cmlidXRlQm94RXZlbiI+PC9yZWN0Pjx0ZXh0IHRyYW5zZm9ybT0idHJhbnNsYXRlKDU3Ljg5NTAxOTUzMTI1LDEwMC42MDAwMDAzODE0Njk3MykiIHN0eWxlPSJkb21pbmFudC1iYXNlbGluZTogbWlkZGxlOyBmb250LXNpemU6IDEwLjJweDsiIHk9IjAiIHg9IjAiIGlkPSJ0ZXh0LWVudGl0eS1VU0VSLTZlN2UyOTYyLTBjNmYtNTc3ZC1hN2ZkLTJjZTNhMGNmZDJjOC1hdHRyLTQtbmFtZSIgY2xhc3M9ImVyIGVudGl0eUxhYmVsIj5wYXNzd29yZDwvdGV4dD48cmVjdCBoZWlnaHQ9IjIyIiB3aWR0aD0iMjIuMDg3Njk1MTIxNzY1MTM3IiB5PSI4OS42MDAwMDAzODE0Njk3MyIgeD0iMTA0LjkwNzUyMDI5NDE4OTQ1IiBjbGFzcz0iZXIgYXR0cmlidXRlQm94RXZlbiI+PC9yZWN0Pjx0ZXh0IHRyYW5zZm9ybT0idHJhbnNsYXRlKDEwOS45MDc1MjAyOTQxODk0NSwxMDAuNjAwMDAwMzgxNDY5NzMpIiBzdHlsZT0iZG9taW5hbnQtYmFzZWxpbmU6IG1pZGRsZTsgZm9udC1zaXplOiAxMC4ycHg7IiB5PSIwIiB4PSIwIiBpZD0idGV4dC1lbnRpdHktVVNFUi02ZTdlMjk2Mi0wYzZmLTU3N2QtYTdmZC0yY2UzYTBjZmQyYzgtYXR0ci00LWtleSIgY2xhc3M9ImVyIGVudGl0eUxhYmVsIj48L3RleHQ+PHJlY3QgaGVpZ2h0PSIyMiIgd2lkdGg9IjY0LjE4OTQ1MzEyNSIgeT0iODkuNjAwMDAwMzgxNDY5NzMiIHg9IjEyNi45OTUyMTU0MTU5NTQ1OSIgY2xhc3M9ImVyIGF0dHJpYnV0ZUJveEV2ZW4iPjwvcmVjdD48dGV4dCB0cmFuc2Zvcm09InRyYW5zbGF0ZSgxMzEuOTk1MjE1NDE1OTU0NiwxMDAuNjAwMDAwMzgxNDY5NzMpIiBzdHlsZT0iZG9taW5hbnQtYmFzZWxpbmU6IG1pZGRsZTsgZm9udC1zaXplOiAxMC4ycHg7IiB5PSIwIiB4PSIwIiBpZD0idGV4dC1lbnRpdHktVVNFUi02ZTdlMjk2Mi0wYzZmLTU3N2QtYTdmZC0yY2UzYTBjZmQyYzgtYXR0ci00LWNvbW1lbnQiIGNsYXNzPSJlciBlbnRpdHlMYWJlbCI+MTAwPC90ZXh0PjwvZz48ZyB0cmFuc2Zvcm09InRyYW5zbGF0ZSgyMCwyMzEuNTk5OTk4NDc0MTIxMSApIiBpZD0iZW50aXR5LUJVU0lORVNTLWE5MzVmMmVmLTQ3ZTUtNTgwZC04MDdkLTkzZjQzY2Y5ODZiMSI+PHJlY3QgaGVpZ2h0PSIyNjYuNDAwMDAwNTcyMjA0NiIgd2lkdGg9IjQzNS42MTU4MTcwNzAwMDczIiB5PSIwIiB4PSIwIiBjbGFzcz0iZXIgZW50aXR5Qm94Ij48L3JlY3Q+PHRleHQgdHJhbnNmb3JtPSJ0cmFuc2xhdGUoMjE3LjgwNzkwODUzNTAwMzY2LDExLjgwMDAwMDE5MDczNDg2MykiIHN0eWxlPSJkb21pbmFudC1iYXNlbGluZTogbWlkZGxlOyB0ZXh0LWFuY2hvcjogbWlkZGxlOyBmb250LXNpemU6IDEycHg7IiB5PSIwIiB4PSIwIiBpZD0idGV4dC1lbnRpdHktQlVTSU5FU1MtYTkzNWYyZWYtNDdlNS01ODBkLTgwN2QtOTNmNDNjZjk4NmIxIiBjbGFzcz0iZXIgZW50aXR5TGFiZWwiPkJVU0lORVNTPC90ZXh0PjxyZWN0IGhlaWdodD0iMjIiIHdpZHRoPSI1Mi44OTUwMTk1MzEyNSIgeT0iMjMuNjAwMDAwMzgxNDY5NzI3IiB4PSIwIiBjbGFzcz0iZXIgYXR0cmlidXRlQm94T2RkIj48L3JlY3Q+PHRleHQgdHJhbnNmb3JtPSJ0cmFuc2xhdGUoNSwzNC42MDAwMDAzODE0Njk3MykiIHN0eWxlPSJkb21pbmFudC1iYXNlbGluZTogbWlkZGxlOyBmb250LXNpemU6IDEwLjJweDsiIHk9IjAiIHg9IjAiIGlkPSJ0ZXh0LWVudGl0eS1CVVNJTkVTUy1hOTM1ZjJlZi00N2U1LTU4MGQtODA3ZC05M2Y0M2NmOTg2YjEtYXR0ci0xLXR5cGUiIGNsYXNzPSJlciBlbnRpdHlMYWJlbCI+SU5UPC90ZXh0PjxyZWN0IGhlaWdodD0iMjIiIHdpZHRoPSI5My42MzM5ODc0MjY3NTc4MSIgeT0iMjMuNjAwMDAwMzgxNDY5NzI3IiB4PSI1Mi44OTUwMTk1MzEyNSIgY2xhc3M9ImVyIGF0dHJpYnV0ZUJveE9kZCI+PC9yZWN0Pjx0ZXh0IHRyYW5zZm9ybT0idHJhbnNsYXRlKDU3Ljg5NTAxOTUzMTI1LDM0LjYwMDAwMDM4MTQ2OTczKSIgc3R5bGU9ImRvbWluYW50LWJhc2VsaW5lOiBtaWRkbGU7IGZvbnQtc2l6ZTogMTAuMnB4OyIgeT0iMCIgeD0iMCIgaWQ9InRleHQtZW50aXR5LUJVU0lORVNTLWE5MzVmMmVmLTQ3ZTUtNTgwZC04MDdkLTkzZjQzY2Y5ODZiMS1hdHRyLTEtbmFtZSIgY2xhc3M9ImVyIGVudGl0eUxhYmVsIj5pZDwvdGV4dD48cmVjdCBoZWlnaHQ9IjIyIiB3aWR0aD0iMjIuMDg3Njk1MTIxNzY1MTM3IiB5PSIyMy42MDAwMDAzODE0Njk3MjciIHg9IjE0Ni41MjkwMDY5NTgwMDc4IiBjbGFzcz0iZXIgYXR0cmlidXRlQm94T2RkIj48L3JlY3Q+PHRleHQgdHJhbnNmb3JtPSJ0cmFuc2xhdGUoMTUxLjUyOTAwNjk1ODAwNzgsMzQuNjAwMDAwMzgxNDY5NzMpIiBzdHlsZT0iZG9taW5hbnQtYmFzZWxpbmU6IG1pZGRsZTsgZm9udC1zaXplOiAxMC4ycHg7IiB5PSIwIiB4PSIwIiBpZD0idGV4dC1lbnRpdHktQlVTSU5FU1MtYTkzNWYyZWYtNDdlNS01ODBkLTgwN2QtOTNmNDNjZjk4NmIxLWF0dHItMS1rZXkiIGNsYXNzPSJlciBlbnRpdHlMYWJlbCI+UEs8L3RleHQ+PHJlY3QgaGVpZ2h0PSIyMiIgd2lkdGg9IjI2Ni45OTkxMTQ5OTAyMzQ0IiB5PSIyMy42MDAwMDAzODE0Njk3MjciIHg9IjE2OC42MTY3MDIwNzk3NzI5NSIgY2xhc3M9ImVyIGF0dHJpYnV0ZUJveE9kZCI+PC9yZWN0Pjx0ZXh0IHRyYW5zZm9ybT0idHJhbnNsYXRlKDE3My42MTY3MDIwNzk3NzI5NSwzNC42MDAwMDAzODE0Njk3MykiIHN0eWxlPSJkb21pbmFudC1iYXNlbGluZTogbWlkZGxlOyBmb250LXNpemU6IDEwLjJweDsiIHk9IjAiIHg9IjAiIGlkPSJ0ZXh0LWVudGl0eS1CVVNJTkVTUy1hOTM1ZjJlZi00N2U1LTU4MGQtODA3ZC05M2Y0M2NmOTg2YjEtYXR0ci0xLWNvbW1lbnQiIGNsYXNzPSJlciBlbnRpdHlMYWJlbCI+PC90ZXh0PjxyZWN0IGhlaWdodD0iMjIiIHdpZHRoPSI1Mi44OTUwMTk1MzEyNSIgeT0iNDUuNjAwMDAwMzgxNDY5NzMiIHg9IjAiIGNsYXNzPSJlciBhdHRyaWJ1dGVCb3hFdmVuIj48L3JlY3Q+PHRleHQgdHJhbnNmb3JtPSJ0cmFuc2xhdGUoNSw1Ni42MDAwMDAzODE0Njk3MykiIHN0eWxlPSJkb21pbmFudC1iYXNlbGluZTogbWlkZGxlOyBmb250LXNpemU6IDEwLjJweDsiIHk9IjAiIHg9IjAiIGlkPSJ0ZXh0LWVudGl0eS1CVVNJTkVTUy1hOTM1ZjJlZi00N2U1LTU4MGQtODA3ZC05M2Y0M2NmOTg2YjEtYXR0ci0yLXR5cGUiIGNsYXNzPSJlciBlbnRpdHlMYWJlbCI+SU5UPC90ZXh0PjxyZWN0IGhlaWdodD0iMjIiIHdpZHRoPSI5My42MzM5ODc0MjY3NTc4MSIgeT0iNDUuNjAwMDAwMzgxNDY5NzMiIHg9IjUyLjg5NTAxOTUzMTI1IiBjbGFzcz0iZXIgYXR0cmlidXRlQm94RXZlbiI+PC9yZWN0Pjx0ZXh0IHRyYW5zZm9ybT0idHJhbnNsYXRlKDU3Ljg5NTAxOTUzMTI1LDU2LjYwMDAwMDM4MTQ2OTczKSIgc3R5bGU9ImRvbWluYW50LWJhc2VsaW5lOiBtaWRkbGU7IGZvbnQtc2l6ZTogMTAuMnB4OyIgeT0iMCIgeD0iMCIgaWQ9InRleHQtZW50aXR5LUJVU0lORVNTLWE5MzVmMmVmLTQ3ZTUtNTgwZC04MDdkLTkzZjQzY2Y5ODZiMS1hdHRyLTItbmFtZSIgY2xhc3M9ImVyIGVudGl0eUxhYmVsIj51c2VyX2lkPC90ZXh0PjxyZWN0IGhlaWdodD0iMjIiIHdpZHRoPSIyMi4wODc2OTUxMjE3NjUxMzciIHk9IjQ1LjYwMDAwMDM4MTQ2OTczIiB4PSIxNDYuNTI5MDA2OTU4MDA3OCIgY2xhc3M9ImVyIGF0dHJpYnV0ZUJveEV2ZW4iPjwvcmVjdD48dGV4dCB0cmFuc2Zvcm09InRyYW5zbGF0ZSgxNTEuNTI5MDA2OTU4MDA3OCw1Ni42MDAwMDAzODE0Njk3MykiIHN0eWxlPSJkb21pbmFudC1iYXNlbGluZTogbWlkZGxlOyBmb250LXNpemU6IDEwLjJweDsiIHk9IjAiIHg9IjAiIGlkPSJ0ZXh0LWVudGl0eS1CVVNJTkVTUy1hOTM1ZjJlZi00N2U1LTU4MGQtODA3ZC05M2Y0M2NmOTg2YjEtYXR0ci0yLWtleSIgY2xhc3M9ImVyIGVudGl0eUxhYmVsIj5GSzwvdGV4dD48cmVjdCBoZWlnaHQ9IjIyIiB3aWR0aD0iMjY2Ljk5OTExNDk5MDIzNDQiIHk9IjQ1LjYwMDAwMDM4MTQ2OTczIiB4PSIxNjguNjE2NzAyMDc5NzcyOTUiIGNsYXNzPSJlciBhdHRyaWJ1dGVCb3hFdmVuIj48L3JlY3Q+PHRleHQgdHJhbnNmb3JtPSJ0cmFuc2xhdGUoMTczLjYxNjcwMjA3OTc3Mjk1LDU2LjYwMDAwMDM4MTQ2OTczKSIgc3R5bGU9ImRvbWluYW50LWJhc2VsaW5lOiBtaWRkbGU7IGZvbnQtc2l6ZTogMTAuMnB4OyIgeT0iMCIgeD0iMCIgaWQ9InRleHQtZW50aXR5LUJVU0lORVNTLWE5MzVmMmVmLTQ3ZTUtNTgwZC04MDdkLTkzZjQzY2Y5ODZiMS1hdHRyLTItY29tbWVudCIgY2xhc3M9ImVyIGVudGl0eUxhYmVsIj48L3RleHQ+PHJlY3QgaGVpZ2h0PSIyMiIgd2lkdGg9IjUyLjg5NTAxOTUzMTI1IiB5PSI2Ny42MDAwMDAzODE0Njk3MyIgeD0iMCIgY2xhc3M9ImVyIGF0dHJpYnV0ZUJveE9kZCI+PC9yZWN0Pjx0ZXh0IHRyYW5zZm9ybT0idHJhbnNsYXRlKDUsNzguNjAwMDAwMzgxNDY5NzMpIiBzdHlsZT0iZG9taW5hbnQtYmFzZWxpbmU6IG1pZGRsZTsgZm9udC1zaXplOiAxMC4ycHg7IiB5PSIwIiB4PSIwIiBpZD0idGV4dC1lbnRpdHktQlVTSU5FU1MtYTkzNWYyZWYtNDdlNS01ODBkLTgwN2QtOTNmNDNjZjk4NmIxLWF0dHItMy10eXBlIiBjbGFzcz0iZXIgZW50aXR5TGFiZWwiPlZBUkNIQVI8L3RleHQ+PHJlY3QgaGVpZ2h0PSIyMiIgd2lkdGg9IjkzLjYzMzk4NzQyNjc1NzgxIiB5PSI2Ny42MDAwMDAzODE0Njk3MyIgeD0iNTIuODk1MDE5NTMxMjUiIGNsYXNzPSJlciBhdHRyaWJ1dGVCb3hPZGQiPjwvcmVjdD48dGV4dCB0cmFuc2Zvcm09InRyYW5zbGF0ZSg1Ny44OTUwMTk1MzEyNSw3OC42MDAwMDAzODE0Njk3MykiIHN0eWxlPSJkb21pbmFudC1iYXNlbGluZTogbWlkZGxlOyBmb250LXNpemU6IDEwLjJweDsiIHk9IjAiIHg9IjAiIGlkPSJ0ZXh0LWVudGl0eS1CVVNJTkVTUy1hOTM1ZjJlZi00N2U1LTU4MGQtODA3ZC05M2Y0M2NmOTg2YjEtYXR0ci0zLW5hbWUiIGNsYXNzPSJlciBlbnRpdHlMYWJlbCI+bmFtZTwvdGV4dD48cmVjdCBoZWlnaHQ9IjIyIiB3aWR0aD0iMjIuMDg3Njk1MTIxNzY1MTM3IiB5PSI2Ny42MDAwMDAzODE0Njk3MyIgeD0iMTQ2LjUyOTAwNjk1ODAwNzgiIGNsYXNzPSJlciBhdHRyaWJ1dGVCb3hPZGQiPjwvcmVjdD48dGV4dCB0cmFuc2Zvcm09InRyYW5zbGF0ZSgxNTEuNTI5MDA2OTU4MDA3OCw3OC42MDAwMDAzODE0Njk3MykiIHN0eWxlPSJkb21pbmFudC1iYXNlbGluZTogbWlkZGxlOyBmb250LXNpemU6IDEwLjJweDsiIHk9IjAiIHg9IjAiIGlkPSJ0ZXh0LWVudGl0eS1CVVNJTkVTUy1hOTM1ZjJlZi00N2U1LTU4MGQtODA3ZC05M2Y0M2NmOTg2YjEtYXR0ci0zLWtleSIgY2xhc3M9ImVyIGVudGl0eUxhYmVsIj48L3RleHQ+PHJlY3QgaGVpZ2h0PSIyMiIgd2lkdGg9IjI2Ni45OTkxMTQ5OTAyMzQ0IiB5PSI2Ny42MDAwMDAzODE0Njk3MyIgeD0iMTY4LjYxNjcwMjA3OTc3Mjk1IiBjbGFzcz0iZXIgYXR0cmlidXRlQm94T2RkIj48L3JlY3Q+PHRleHQgdHJhbnNmb3JtPSJ0cmFuc2xhdGUoMTczLjYxNjcwMjA3OTc3Mjk1LDc4LjYwMDAwMDM4MTQ2OTczKSIgc3R5bGU9ImRvbWluYW50LWJhc2VsaW5lOiBtaWRkbGU7IGZvbnQtc2l6ZTogMTAuMnB4OyIgeT0iMCIgeD0iMCIgaWQ9InRleHQtZW50aXR5LUJVU0lORVNTLWE5MzVmMmVmLTQ3ZTUtNTgwZC04MDdkLTkzZjQzY2Y5ODZiMS1hdHRyLTMtY29tbWVudCIgY2xhc3M9ImVyIGVudGl0eUxhYmVsIj4xMDAgVU5JUVVFPC90ZXh0PjxyZWN0IGhlaWdodD0iMjIiIHdpZHRoPSI1Mi44OTUwMTk1MzEyNSIgeT0iODkuNjAwMDAwMzgxNDY5NzMiIHg9IjAiIGNsYXNzPSJlciBhdHRyaWJ1dGVCb3hFdmVuIj48L3JlY3Q+PHRleHQgdHJhbnNmb3JtPSJ0cmFuc2xhdGUoNSwxMDAuNjAwMDAwMzgxNDY5NzMpIiBzdHlsZT0iZG9taW5hbnQtYmFzZWxpbmU6IG1pZGRsZTsgZm9udC1zaXplOiAxMC4ycHg7IiB5PSIwIiB4PSIwIiBpZD0idGV4dC1lbnRpdHktQlVTSU5FU1MtYTkzNWYyZWYtNDdlNS01ODBkLTgwN2QtOTNmNDNjZjk4NmIxLWF0dHItNC10eXBlIiBjbGFzcz0iZXIgZW50aXR5TGFiZWwiPlRFWFQ8L3RleHQ+PHJlY3QgaGVpZ2h0PSIyMiIgd2lkdGg9IjkzLjYzMzk4NzQyNjc1NzgxIiB5PSI4OS42MDAwMDAzODE0Njk3MyIgeD0iNTIuODk1MDE5NTMxMjUiIGNsYXNzPSJlciBhdHRyaWJ1dGVCb3hFdmVuIj48L3JlY3Q+PHRleHQgdHJhbnNmb3JtPSJ0cmFuc2xhdGUoNTcuODk1MDE5NTMxMjUsMTAwLjYwMDAwMDM4MTQ2OTczKSIgc3R5bGU9ImRvbWluYW50LWJhc2VsaW5lOiBtaWRkbGU7IGZvbnQtc2l6ZTogMTAuMnB4OyIgeT0iMCIgeD0iMCIgaWQ9InRleHQtZW50aXR5LUJVU0lORVNTLWE5MzVmMmVmLTQ3ZTUtNTgwZC04MDdkLTkzZjQzY2Y5ODZiMS1hdHRyLTQtbmFtZSIgY2xhc3M9ImVyIGVudGl0eUxhYmVsIj5kZXNjcmlwdGlvbjwvdGV4dD48cmVjdCBoZWlnaHQ9IjIyIiB3aWR0aD0iMjIuMDg3Njk1MTIxNzY1MTM3IiB5PSI4OS42MDAwMDAzODE0Njk3MyIgeD0iMTQ2LjUyOTAwNjk1ODAwNzgiIGNsYXNzPSJlciBhdHRyaWJ1dGVCb3hFdmVuIj48L3JlY3Q+PHRleHQgdHJhbnNmb3JtPSJ0cmFuc2xhdGUoMTUxLjUyOTAwNjk1ODAwNzgsMTAwLjYwMDAwMDM4MTQ2OTczKSIgc3R5bGU9ImRvbWluYW50LWJhc2VsaW5lOiBtaWRkbGU7IGZvbnQtc2l6ZTogMTAuMnB4OyIgeT0iMCIgeD0iMCIgaWQ9InRleHQtZW50aXR5LUJVU0lORVNTLWE5MzVmMmVmLTQ3ZTUtNTgwZC04MDdkLTkzZjQzY2Y5ODZiMS1hdHRyLTQta2V5IiBjbGFzcz0iZXIgZW50aXR5TGFiZWwiPjwvdGV4dD48cmVjdCBoZWlnaHQ9IjIyIiB3aWR0aD0iMjY2Ljk5OTExNDk5MDIzNDQiIHk9Ijg5LjYwMDAwMDM4MTQ2OTczIiB4PSIxNjguNjE2NzAyMDc5NzcyOTUiIGNsYXNzPSJlciBhdHRyaWJ1dGVCb3hFdmVuIj48L3JlY3Q+PHRleHQgdHJhbnNmb3JtPSJ0cmFuc2xhdGUoMTczLjYxNjcwMjA3OTc3Mjk1LDEwMC42MDAwMDAzODE0Njk3MykiIHN0eWxlPSJkb21pbmFudC1iYXNlbGluZTogbWlkZGxlOyBmb250LXNpemU6IDEwLjJweDsiIHk9IjAiIHg9IjAiIGlkPSJ0ZXh0LWVudGl0eS1CVVNJTkVTUy1hOTM1ZjJlZi00N2U1LTU4MGQtODA3ZC05M2Y0M2NmOTg2YjEtYXR0ci00LWNvbW1lbnQiIGNsYXNzPSJlciBlbnRpdHlMYWJlbCI+PC90ZXh0PjxyZWN0IGhlaWdodD0iMjIiIHdpZHRoPSI1Mi44OTUwMTk1MzEyNSIgeT0iMTExLjYwMDAwMDM4MTQ2OTczIiB4PSIwIiBjbGFzcz0iZXIgYXR0cmlidXRlQm94T2RkIj48L3JlY3Q+PHRleHQgdHJhbnNmb3JtPSJ0cmFuc2xhdGUoNSwxMjIuNjAwMDAwMzgxNDY5NzMpIiBzdHlsZT0iZG9taW5hbnQtYmFzZWxpbmU6IG1pZGRsZTsgZm9udC1zaXplOiAxMC4ycHg7IiB5PSIwIiB4PSIwIiBpZD0idGV4dC1lbnRpdHktQlVTSU5FU1MtYTkzNWYyZWYtNDdlNS01ODBkLTgwN2QtOTNmNDNjZjk4NmIxLWF0dHItNS10eXBlIiBjbGFzcz0iZXIgZW50aXR5TGFiZWwiPlZBUkNIQVI8L3RleHQ+PHJlY3QgaGVpZ2h0PSIyMiIgd2lkdGg9IjkzLjYzMzk4NzQyNjc1NzgxIiB5PSIxMTEuNjAwMDAwMzgxNDY5NzMiIHg9IjUyLjg5NTAxOTUzMTI1IiBjbGFzcz0iZXIgYXR0cmlidXRlQm94T2RkIj48L3JlY3Q+PHRleHQgdHJhbnNmb3JtPSJ0cmFuc2xhdGUoNTcuODk1MDE5NTMxMjUsMTIyLjYwMDAwMDM4MTQ2OTczKSIgc3R5bGU9ImRvbWluYW50LWJhc2VsaW5lOiBtaWRkbGU7IGZvbnQtc2l6ZTogMTAuMnB4OyIgeT0iMCIgeD0iMCIgaWQ9InRleHQtZW50aXR5LUJVU0lORVNTLWE5MzVmMmVmLTQ3ZTUtNTgwZC04MDdkLTkzZjQzY2Y5ODZiMS1hdHRyLTUtbmFtZSIgY2xhc3M9ImVyIGVudGl0eUxhYmVsIj5pbWFnZTwvdGV4dD48cmVjdCBoZWlnaHQ9IjIyIiB3aWR0aD0iMjIuMDg3Njk1MTIxNzY1MTM3IiB5PSIxMTEuNjAwMDAwMzgxNDY5NzMiIHg9IjE0Ni41MjkwMDY5NTgwMDc4IiBjbGFzcz0iZXIgYXR0cmlidXRlQm94T2RkIj48L3JlY3Q+PHRleHQgdHJhbnNmb3JtPSJ0cmFuc2xhdGUoMTUxLjUyOTAwNjk1ODAwNzgsMTIyLjYwMDAwMDM4MTQ2OTczKSIgc3R5bGU9ImRvbWluYW50LWJhc2VsaW5lOiBtaWRkbGU7IGZvbnQtc2l6ZTogMTAuMnB4OyIgeT0iMCIgeD0iMCIgaWQ9InRleHQtZW50aXR5LUJVU0lORVNTLWE5MzVmMmVmLTQ3ZTUtNTgwZC04MDdkLTkzZjQzY2Y5ODZiMS1hdHRyLTUta2V5IiBjbGFzcz0iZXIgZW50aXR5TGFiZWwiPjwvdGV4dD48cmVjdCBoZWlnaHQ9IjIyIiB3aWR0aD0iMjY2Ljk5OTExNDk5MDIzNDQiIHk9IjExMS42MDAwMDAzODE0Njk3MyIgeD0iMTY4LjYxNjcwMjA3OTc3Mjk1IiBjbGFzcz0iZXIgYXR0cmlidXRlQm94T2RkIj48L3JlY3Q+PHRleHQgdHJhbnNmb3JtPSJ0cmFuc2xhdGUoMTczLjYxNjcwMjA3OTc3Mjk1LDEyMi42MDAwMDAzODE0Njk3MykiIHN0eWxlPSJkb21pbmFudC1iYXNlbGluZTogbWlkZGxlOyBmb250LXNpemU6IDEwLjJweDsiIHk9IjAiIHg9IjAiIGlkPSJ0ZXh0LWVudGl0eS1CVVNJTkVTUy1hOTM1ZjJlZi00N2U1LTU4MGQtODA3ZC05M2Y0M2NmOTg2YjEtYXR0ci01LWNvbW1lbnQiIGNsYXNzPSJlciBlbnRpdHlMYWJlbCI+PC90ZXh0PjxyZWN0IGhlaWdodD0iMjIiIHdpZHRoPSI1Mi44OTUwMTk1MzEyNSIgeT0iMTMzLjYwMDAwMDM4MTQ2OTczIiB4PSIwIiBjbGFzcz0iZXIgYXR0cmlidXRlQm94RXZlbiI+PC9yZWN0Pjx0ZXh0IHRyYW5zZm9ybT0idHJhbnNsYXRlKDUsMTQ0LjYwMDAwMDM4MTQ2OTczKSIgc3R5bGU9ImRvbWluYW50LWJhc2VsaW5lOiBtaWRkbGU7IGZvbnQtc2l6ZTogMTAuMnB4OyIgeT0iMCIgeD0iMCIgaWQ9InRleHQtZW50aXR5LUJVU0lORVNTLWE5MzVmMmVmLTQ3ZTUtNTgwZC04MDdkLTkzZjQzY2Y5ODZiMS1hdHRyLTYtdHlwZSIgY2xhc3M9ImVyIGVudGl0eUxhYmVsIj5WQVJDSEFSPC90ZXh0PjxyZWN0IGhlaWdodD0iMjIiIHdpZHRoPSI5My42MzM5ODc0MjY3NTc4MSIgeT0iMTMzLjYwMDAwMDM4MTQ2OTczIiB4PSI1Mi44OTUwMTk1MzEyNSIgY2xhc3M9ImVyIGF0dHJpYnV0ZUJveEV2ZW4iPjwvcmVjdD48dGV4dCB0cmFuc2Zvcm09InRyYW5zbGF0ZSg1Ny44OTUwMTk1MzEyNSwxNDQuNjAwMDAwMzgxNDY5NzMpIiBzdHlsZT0iZG9taW5hbnQtYmFzZWxpbmU6IG1pZGRsZTsgZm9udC1zaXplOiAxMC4ycHg7IiB5PSIwIiB4PSIwIiBpZD0idGV4dC1lbnRpdHktQlVTSU5FU1MtYTkzNWYyZWYtNDdlNS01ODBkLTgwN2QtOTNmNDNjZjk4NmIxLWF0dHItNi1uYW1lIiBjbGFzcz0iZXIgZW50aXR5TGFiZWwiPnBob25lPC90ZXh0PjxyZWN0IGhlaWdodD0iMjIiIHdpZHRoPSIyMi4wODc2OTUxMjE3NjUxMzciIHk9IjEzMy42MDAwMDAzODE0Njk3MyIgeD0iMTQ2LjUyOTAwNjk1ODAwNzgiIGNsYXNzPSJlciBhdHRyaWJ1dGVCb3hFdmVuIj48L3JlY3Q+PHRleHQgdHJhbnNmb3JtPSJ0cmFuc2xhdGUoMTUxLjUyOTAwNjk1ODAwNzgsMTQ0LjYwMDAwMDM4MTQ2OTczKSIgc3R5bGU9ImRvbWluYW50LWJhc2VsaW5lOiBtaWRkbGU7IGZvbnQtc2l6ZTogMTAuMnB4OyIgeT0iMCIgeD0iMCIgaWQ9InRleHQtZW50aXR5LUJVU0lORVNTLWE5MzVmMmVmLTQ3ZTUtNTgwZC04MDdkLTkzZjQzY2Y5ODZiMS1hdHRyLTYta2V5IiBjbGFzcz0iZXIgZW50aXR5TGFiZWwiPjwvdGV4dD48cmVjdCBoZWlnaHQ9IjIyIiB3aWR0aD0iMjY2Ljk5OTExNDk5MDIzNDQiIHk9IjEzMy42MDAwMDAzODE0Njk3MyIgeD0iMTY4LjYxNjcwMjA3OTc3Mjk1IiBjbGFzcz0iZXIgYXR0cmlidXRlQm94RXZlbiI+PC9yZWN0Pjx0ZXh0IHRyYW5zZm9ybT0idHJhbnNsYXRlKDE3My42MTY3MDIwNzk3NzI5NSwxNDQuNjAwMDAwMzgxNDY5NzMpIiBzdHlsZT0iZG9taW5hbnQtYmFzZWxpbmU6IG1pZGRsZTsgZm9udC1zaXplOiAxMC4ycHg7IiB5PSIwIiB4PSIwIiBpZD0idGV4dC1lbnRpdHktQlVTSU5FU1MtYTkzNWYyZWYtNDdlNS01ODBkLTgwN2QtOTNmNDNjZjk4NmIxLWF0dHItNi1jb21tZW50IiBjbGFzcz0iZXIgZW50aXR5TGFiZWwiPjwvdGV4dD48cmVjdCBoZWlnaHQ9IjIyIiB3aWR0aD0iNTIuODk1MDE5NTMxMjUiIHk9IjE1NS42MDAwMDAzODE0Njk3MyIgeD0iMCIgY2xhc3M9ImVyIGF0dHJpYnV0ZUJveE9kZCI+PC9yZWN0Pjx0ZXh0IHRyYW5zZm9ybT0idHJhbnNsYXRlKDUsMTY2LjYwMDAwMDM4MTQ2OTczKSIgc3R5bGU9ImRvbWluYW50LWJhc2VsaW5lOiBtaWRkbGU7IGZvbnQtc2l6ZTogMTAuMnB4OyIgeT0iMCIgeD0iMCIgaWQ9InRleHQtZW50aXR5LUJVU0lORVNTLWE5MzVmMmVmLTQ3ZTUtNTgwZC04MDdkLTkzZjQzY2Y5ODZiMS1hdHRyLTctdHlwZSIgY2xhc3M9ImVyIGVudGl0eUxhYmVsIj5WQVJDSEFSPC90ZXh0PjxyZWN0IGhlaWdodD0iMjIiIHdpZHRoPSI5My42MzM5ODc0MjY3NTc4MSIgeT0iMTU1LjYwMDAwMDM4MTQ2OTczIiB4PSI1Mi44OTUwMTk1MzEyNSIgY2xhc3M9ImVyIGF0dHJpYnV0ZUJveE9kZCI+PC9yZWN0Pjx0ZXh0IHRyYW5zZm9ybT0idHJhbnNsYXRlKDU3Ljg5NTAxOTUzMTI1LDE2Ni42MDAwMDAzODE0Njk3MykiIHN0eWxlPSJkb21pbmFudC1iYXNlbGluZTogbWlkZGxlOyBmb250LXNpemU6IDEwLjJweDsiIHk9IjAiIHg9IjAiIGlkPSJ0ZXh0LWVudGl0eS1CVVNJTkVTUy1hOTM1ZjJlZi00N2U1LTU4MGQtODA3ZC05M2Y0M2NmOTg2YjEtYXR0ci03LW5hbWUiIGNsYXNzPSJlciBlbnRpdHlMYWJlbCI+ZW1haWw8L3RleHQ+PHJlY3QgaGVpZ2h0PSIyMiIgd2lkdGg9IjIyLjA4NzY5NTEyMTc2NTEzNyIgeT0iMTU1LjYwMDAwMDM4MTQ2OTczIiB4PSIxNDYuNTI5MDA2OTU4MDA3OCIgY2xhc3M9ImVyIGF0dHJpYnV0ZUJveE9kZCI+PC9yZWN0Pjx0ZXh0IHRyYW5zZm9ybT0idHJhbnNsYXRlKDE1MS41MjkwMDY5NTgwMDc4LDE2Ni42MDAwMDAzODE0Njk3MykiIHN0eWxlPSJkb21pbmFudC1iYXNlbGluZTogbWlkZGxlOyBmb250LXNpemU6IDEwLjJweDsiIHk9IjAiIHg9IjAiIGlkPSJ0ZXh0LWVudGl0eS1CVVNJTkVTUy1hOTM1ZjJlZi00N2U1LTU4MGQtODA3ZC05M2Y0M2NmOTg2YjEtYXR0ci03LWtleSIgY2xhc3M9ImVyIGVudGl0eUxhYmVsIj48L3RleHQ+PHJlY3QgaGVpZ2h0PSIyMiIgd2lkdGg9IjI2Ni45OTkxMTQ5OTAyMzQ0IiB5PSIxNTUuNjAwMDAwMzgxNDY5NzMiIHg9IjE2OC42MTY3MDIwNzk3NzI5NSIgY2xhc3M9ImVyIGF0dHJpYnV0ZUJveE9kZCI+PC9yZWN0Pjx0ZXh0IHRyYW5zZm9ybT0idHJhbnNsYXRlKDE3My42MTY3MDIwNzk3NzI5NSwxNjYuNjAwMDAwMzgxNDY5NzMpIiBzdHlsZT0iZG9taW5hbnQtYmFzZWxpbmU6IG1pZGRsZTsgZm9udC1zaXplOiAxMC4ycHg7IiB5PSIwIiB4PSIwIiBpZD0idGV4dC1lbnRpdHktQlVTSU5FU1MtYTkzNWYyZWYtNDdlNS01ODBkLTgwN2QtOTNmNDNjZjk4NmIxLWF0dHItNy1jb21tZW50IiBjbGFzcz0iZXIgZW50aXR5TGFiZWwiPlVOSVFVRTwvdGV4dD48cmVjdCBoZWlnaHQ9IjIyLjgwMDAwMDE5MDczNDg2MyIgd2lkdGg9IjUyLjg5NTAxOTUzMTI1IiB5PSIxNzcuNjAwMDAwMzgxNDY5NzMiIHg9IjAiIGNsYXNzPSJlciBhdHRyaWJ1dGVCb3hFdmVuIj48L3JlY3Q+PHRleHQgdHJhbnNmb3JtPSJ0cmFuc2xhdGUoNSwxODkuMDAwMDAwNDc2ODM3MTYpIiBzdHlsZT0iZG9taW5hbnQtYmFzZWxpbmU6IG1pZGRsZTsgZm9udC1zaXplOiAxMC4ycHg7IiB5PSIwIiB4PSIwIiBpZD0idGV4dC1lbnRpdHktQlVTSU5FU1MtYTkzNWYyZWYtNDdlNS01ODBkLTgwN2QtOTNmNDNjZjk4NmIxLWF0dHItOC10eXBlIiBjbGFzcz0iZXIgZW50aXR5TGFiZWwiPkVOVU08L3RleHQ+PHJlY3QgaGVpZ2h0PSIyMi44MDAwMDAxOTA3MzQ4NjMiIHdpZHRoPSI5My42MzM5ODc0MjY3NTc4MSIgeT0iMTc3LjYwMDAwMDM4MTQ2OTczIiB4PSI1Mi44OTUwMTk1MzEyNSIgY2xhc3M9ImVyIGF0dHJpYnV0ZUJveEV2ZW4iPjwvcmVjdD48dGV4dCB0cmFuc2Zvcm09InRyYW5zbGF0ZSg1Ny44OTUwMTk1MzEyNSwxODkuMDAwMDAwNDc2ODM3MTYpIiBzdHlsZT0iZG9taW5hbnQtYmFzZWxpbmU6IG1pZGRsZTsgZm9udC1zaXplOiAxMC4ycHg7IiB5PSIwIiB4PSIwIiBpZD0idGV4dC1lbnRpdHktQlVTSU5FU1MtYTkzNWYyZWYtNDdlNS01ODBkLTgwN2QtOTNmNDNjZjk4NmIxLWF0dHItOC1uYW1lIiBjbGFzcz0iZXIgZW50aXR5TGFiZWwiPnN0YXR1czwvdGV4dD48cmVjdCBoZWlnaHQ9IjIyLjgwMDAwMDE5MDczNDg2MyIgd2lkdGg9IjIyLjA4NzY5NTEyMTc2NTEzNyIgeT0iMTc3LjYwMDAwMDM4MTQ2OTczIiB4PSIxNDYuNTI5MDA2OTU4MDA3OCIgY2xhc3M9ImVyIGF0dHJpYnV0ZUJveEV2ZW4iPjwvcmVjdD48dGV4dCB0cmFuc2Zvcm09InRyYW5zbGF0ZSgxNTEuNTI5MDA2OTU4MDA3OCwxODkuMDAwMDAwNDc2ODM3MTYpIiBzdHlsZT0iZG9taW5hbnQtYmFzZWxpbmU6IG1pZGRsZTsgZm9udC1zaXplOiAxMC4ycHg7IiB5PSIwIiB4PSIwIiBpZD0idGV4dC1lbnRpdHktQlVTSU5FU1MtYTkzNWYyZWYtNDdlNS01ODBkLTgwN2QtOTNmNDNjZjk4NmIxLWF0dHItOC1rZXkiIGNsYXNzPSJlciBlbnRpdHlMYWJlbCI+PC90ZXh0PjxyZWN0IGhlaWdodD0iMjIuODAwMDAwMTkwNzM0ODYzIiB3aWR0aD0iMjY2Ljk5OTExNDk5MDIzNDQiIHk9IjE3Ny42MDAwMDAzODE0Njk3MyIgeD0iMTY4LjYxNjcwMjA3OTc3Mjk1IiBjbGFzcz0iZXIgYXR0cmlidXRlQm94RXZlbiI+PC9yZWN0Pjx0ZXh0IHRyYW5zZm9ybT0idHJhbnNsYXRlKDE3My42MTY3MDIwNzk3NzI5NSwxODkuMDAwMDAwNDc2ODM3MTYpIiBzdHlsZT0iZG9taW5hbnQtYmFzZWxpbmU6IG1pZGRsZTsgZm9udC1zaXplOiAxMC4ycHg7IiB5PSIwIiB4PSIwIiBpZD0idGV4dC1lbnRpdHktQlVTSU5FU1MtYTkzNWYyZWYtNDdlNS01ODBkLTgwN2QtOTNmNDNjZjk4NmIxLWF0dHItOC1jb21tZW50IiBjbGFzcz0iZXIgZW50aXR5TGFiZWwiPihhcHJvYmFkbyB8IHJlY2hhemFkbyB8IHBlbmRpZW50ZSkgREVGQVVMVCBwZW5kaWVudGU8L3RleHQ+PHJlY3QgaGVpZ2h0PSIyMiIgd2lkdGg9IjUyLjg5NTAxOTUzMTI1IiB5PSIyMDAuNDAwMDAwNTcyMjA0NiIgeD0iMCIgY2xhc3M9ImVyIGF0dHJpYnV0ZUJveE9kZCI+PC9yZWN0Pjx0ZXh0IHRyYW5zZm9ybT0idHJhbnNsYXRlKDUsMjExLjQwMDAwMDU3MjIwNDYpIiBzdHlsZT0iZG9taW5hbnQtYmFzZWxpbmU6IG1pZGRsZTsgZm9udC1zaXplOiAxMC4ycHg7IiB5PSIwIiB4PSIwIiBpZD0idGV4dC1lbnRpdHktQlVTSU5FU1MtYTkzNWYyZWYtNDdlNS01ODBkLTgwN2QtOTNmNDNjZjk4NmIxLWF0dHItOS10eXBlIiBjbGFzcz0iZXIgZW50aXR5TGFiZWwiPlZBUkNIQVI8L3RleHQ+PHJlY3QgaGVpZ2h0PSIyMiIgd2lkdGg9IjkzLjYzMzk4NzQyNjc1NzgxIiB5PSIyMDAuNDAwMDAwNTcyMjA0NiIgeD0iNTIuODk1MDE5NTMxMjUiIGNsYXNzPSJlciBhdHRyaWJ1dGVCb3hPZGQiPjwvcmVjdD48dGV4dCB0cmFuc2Zvcm09InRyYW5zbGF0ZSg1Ny44OTUwMTk1MzEyNSwyMTEuNDAwMDAwNTcyMjA0NikiIHN0eWxlPSJkb21pbmFudC1iYXNlbGluZTogbWlkZGxlOyBmb250LXNpemU6IDEwLjJweDsiIHk9IjAiIHg9IjAiIGlkPSJ0ZXh0LWVudGl0eS1CVVNJTkVTUy1hOTM1ZjJlZi00N2U1LTU4MGQtODA3ZC05M2Y0M2NmOTg2YjEtYXR0ci05LW5hbWUiIGNsYXNzPSJlciBlbnRpdHlMYWJlbCI+c3RhdHVzX2Rlc2NyaXB0aW9uPC90ZXh0PjxyZWN0IGhlaWdodD0iMjIiIHdpZHRoPSIyMi4wODc2OTUxMjE3NjUxMzciIHk9IjIwMC40MDAwMDA1NzIyMDQ2IiB4PSIxNDYuNTI5MDA2OTU4MDA3OCIgY2xhc3M9ImVyIGF0dHJpYnV0ZUJveE9kZCI+PC9yZWN0Pjx0ZXh0IHRyYW5zZm9ybT0idHJhbnNsYXRlKDE1MS41MjkwMDY5NTgwMDc4LDIxMS40MDAwMDA1NzIyMDQ2KSIgc3R5bGU9ImRvbWluYW50LWJhc2VsaW5lOiBtaWRkbGU7IGZvbnQtc2l6ZTogMTAuMnB4OyIgeT0iMCIgeD0iMCIgaWQ9InRleHQtZW50aXR5LUJVU0lORVNTLWE5MzVmMmVmLTQ3ZTUtNTgwZC04MDdkLTkzZjQzY2Y5ODZiMS1hdHRyLTkta2V5IiBjbGFzcz0iZXIgZW50aXR5TGFiZWwiPjwvdGV4dD48cmVjdCBoZWlnaHQ9IjIyIiB3aWR0aD0iMjY2Ljk5OTExNDk5MDIzNDQiIHk9IjIwMC40MDAwMDA1NzIyMDQ2IiB4PSIxNjguNjE2NzAyMDc5NzcyOTUiIGNsYXNzPSJlciBhdHRyaWJ1dGVCb3hPZGQiPjwvcmVjdD48dGV4dCB0cmFuc2Zvcm09InRyYW5zbGF0ZSgxNzMuNjE2NzAyMDc5NzcyOTUsMjExLjQwMDAwMDU3MjIwNDYpIiBzdHlsZT0iZG9taW5hbnQtYmFzZWxpbmU6IG1pZGRsZTsgZm9udC1zaXplOiAxMC4ycHg7IiB5PSIwIiB4PSIwIiBpZD0idGV4dC1lbnRpdHktQlVTSU5FU1MtYTkzNWYyZWYtNDdlNS01ODBkLTgwN2QtOTNmNDNjZjk4NmIxLWF0dHItOS1jb21tZW50IiBjbGFzcz0iZXIgZW50aXR5TGFiZWwiPk5VTExBQkxFPC90ZXh0PjxyZWN0IGhlaWdodD0iMjIiIHdpZHRoPSI1Mi44OTUwMTk1MzEyNSIgeT0iMjIyLjQwMDAwMDU3MjIwNDYiIHg9IjAiIGNsYXNzPSJlciBhdHRyaWJ1dGVCb3hFdmVuIj48L3JlY3Q+PHRleHQgdHJhbnNmb3JtPSJ0cmFuc2xhdGUoNSwyMzMuNDAwMDAwNTcyMjA0NikiIHN0eWxlPSJkb21pbmFudC1iYXNlbGluZTogbWlkZGxlOyBmb250LXNpemU6IDEwLjJweDsiIHk9IjAiIHg9IjAiIGlkPSJ0ZXh0LWVudGl0eS1CVVNJTkVTUy1hOTM1ZjJlZi00N2U1LTU4MGQtODA3ZC05M2Y0M2NmOTg2YjEtYXR0ci0xMC10eXBlIiBjbGFzcz0iZXIgZW50aXR5TGFiZWwiPkRPVUJMRTwvdGV4dD48cmVjdCBoZWlnaHQ9IjIyIiB3aWR0aD0iOTMuNjMzOTg3NDI2NzU3ODEiIHk9IjIyMi40MDAwMDA1NzIyMDQ2IiB4PSI1Mi44OTUwMTk1MzEyNSIgY2xhc3M9ImVyIGF0dHJpYnV0ZUJveEV2ZW4iPjwvcmVjdD48dGV4dCB0cmFuc2Zvcm09InRyYW5zbGF0ZSg1Ny44OTUwMTk1MzEyNSwyMzMuNDAwMDAwNTcyMjA0NikiIHN0eWxlPSJkb21pbmFudC1iYXNlbGluZTogbWlkZGxlOyBmb250LXNpemU6IDEwLjJweDsiIHk9IjAiIHg9IjAiIGlkPSJ0ZXh0LWVudGl0eS1CVVNJTkVTUy1hOTM1ZjJlZi00N2U1LTU4MGQtODA3ZC05M2Y0M2NmOTg2YjEtYXR0ci0xMC1uYW1lIiBjbGFzcz0iZXIgZW50aXR5TGFiZWwiPmxvbmdpdHVkZTwvdGV4dD48cmVjdCBoZWlnaHQ9IjIyIiB3aWR0aD0iMjIuMDg3Njk1MTIxNzY1MTM3IiB5PSIyMjIuNDAwMDAwNTcyMjA0NiIgeD0iMTQ2LjUyOTAwNjk1ODAwNzgiIGNsYXNzPSJlciBhdHRyaWJ1dGVCb3hFdmVuIj48L3JlY3Q+PHRleHQgdHJhbnNmb3JtPSJ0cmFuc2xhdGUoMTUxLjUyOTAwNjk1ODAwNzgsMjMzLjQwMDAwMDU3MjIwNDYpIiBzdHlsZT0iZG9taW5hbnQtYmFzZWxpbmU6IG1pZGRsZTsgZm9udC1zaXplOiAxMC4ycHg7IiB5PSIwIiB4PSIwIiBpZD0idGV4dC1lbnRpdHktQlVTSU5FU1MtYTkzNWYyZWYtNDdlNS01ODBkLTgwN2QtOTNmNDNjZjk4NmIxLWF0dHItMTAta2V5IiBjbGFzcz0iZXIgZW50aXR5TGFiZWwiPjwvdGV4dD48cmVjdCBoZWlnaHQ9IjIyIiB3aWR0aD0iMjY2Ljk5OTExNDk5MDIzNDQiIHk9IjIyMi40MDAwMDA1NzIyMDQ2IiB4PSIxNjguNjE2NzAyMDc5NzcyOTUiIGNsYXNzPSJlciBhdHRyaWJ1dGVCb3hFdmVuIj48L3JlY3Q+PHRleHQgdHJhbnNmb3JtPSJ0cmFuc2xhdGUoMTczLjYxNjcwMjA3OTc3Mjk1LDIzMy40MDAwMDA1NzIyMDQ2KSIgc3R5bGU9ImRvbWluYW50LWJhc2VsaW5lOiBtaWRkbGU7IGZvbnQtc2l6ZTogMTAuMnB4OyIgeT0iMCIgeD0iMCIgaWQ9InRleHQtZW50aXR5LUJVU0lORVNTLWE5MzVmMmVmLTQ3ZTUtNTgwZC04MDdkLTkzZjQzY2Y5ODZiMS1hdHRyLTEwLWNvbW1lbnQiIGNsYXNzPSJlciBlbnRpdHlMYWJlbCI+PC90ZXh0PjxyZWN0IGhlaWdodD0iMjIiIHdpZHRoPSI1Mi44OTUwMTk1MzEyNSIgeT0iMjQ0LjQwMDAwMDU3MjIwNDYiIHg9IjAiIGNsYXNzPSJlciBhdHRyaWJ1dGVCb3hPZGQiPjwvcmVjdD48dGV4dCB0cmFuc2Zvcm09InRyYW5zbGF0ZSg1LDI1NS40MDAwMDA1NzIyMDQ2KSIgc3R5bGU9ImRvbWluYW50LWJhc2VsaW5lOiBtaWRkbGU7IGZvbnQtc2l6ZTogMTAuMnB4OyIgeT0iMCIgeD0iMCIgaWQ9InRleHQtZW50aXR5LUJVU0lORVNTLWE5MzVmMmVmLTQ3ZTUtNTgwZC04MDdkLTkzZjQzY2Y5ODZiMS1hdHRyLTExLXR5cGUiIGNsYXNzPSJlciBlbnRpdHlMYWJlbCI+RE9VQkxFPC90ZXh0PjxyZWN0IGhlaWdodD0iMjIiIHdpZHRoPSI5My42MzM5ODc0MjY3NTc4MSIgeT0iMjQ0LjQwMDAwMDU3MjIwNDYiIHg9IjUyLjg5NTAxOTUzMTI1IiBjbGFzcz0iZXIgYXR0cmlidXRlQm94T2RkIj48L3JlY3Q+PHRleHQgdHJhbnNmb3JtPSJ0cmFuc2xhdGUoNTcuODk1MDE5NTMxMjUsMjU1LjQwMDAwMDU3MjIwNDYpIiBzdHlsZT0iZG9taW5hbnQtYmFzZWxpbmU6IG1pZGRsZTsgZm9udC1zaXplOiAxMC4ycHg7IiB5PSIwIiB4PSIwIiBpZD0idGV4dC1lbnRpdHktQlVTSU5FU1MtYTkzNWYyZWYtNDdlNS01ODBkLTgwN2QtOTNmNDNjZjk4NmIxLWF0dHItMTEtbmFtZSIgY2xhc3M9ImVyIGVudGl0eUxhYmVsIj5sYXRpdHVkZTwvdGV4dD48cmVjdCBoZWlnaHQ9IjIyIiB3aWR0aD0iMjIuMDg3Njk1MTIxNzY1MTM3IiB5PSIyNDQuNDAwMDAwNTcyMjA0NiIgeD0iMTQ2LjUyOTAwNjk1ODAwNzgiIGNsYXNzPSJlciBhdHRyaWJ1dGVCb3hPZGQiPjwvcmVjdD48dGV4dCB0cmFuc2Zvcm09InRyYW5zbGF0ZSgxNTEuNTI5MDA2OTU4MDA3OCwyNTUuNDAwMDAwNTcyMjA0NikiIHN0eWxlPSJkb21pbmFudC1iYXNlbGluZTogbWlkZGxlOyBmb250LXNpemU6IDEwLjJweDsiIHk9IjAiIHg9IjAiIGlkPSJ0ZXh0LWVudGl0eS1CVVNJTkVTUy1hOTM1ZjJlZi00N2U1LTU4MGQtODA3ZC05M2Y0M2NmOTg2YjEtYXR0ci0xMS1rZXkiIGNsYXNzPSJlciBlbnRpdHlMYWJlbCI+PC90ZXh0PjxyZWN0IGhlaWdodD0iMjIiIHdpZHRoPSIyNjYuOTk5MTE0OTkwMjM0NCIgeT0iMjQ0LjQwMDAwMDU3MjIwNDYiIHg9IjE2OC42MTY3MDIwNzk3NzI5NSIgY2xhc3M9ImVyIGF0dHJpYnV0ZUJveE9kZCI+PC9yZWN0Pjx0ZXh0IHRyYW5zZm9ybT0idHJhbnNsYXRlKDE3My42MTY3MDIwNzk3NzI5NSwyNTUuNDAwMDAwNTcyMjA0NikiIHN0eWxlPSJkb21pbmFudC1iYXNlbGluZTogbWlkZGxlOyBmb250LXNpemU6IDEwLjJweDsiIHk9IjAiIHg9IjAiIGlkPSJ0ZXh0LWVudGl0eS1CVVNJTkVTUy1hOTM1ZjJlZi00N2U1LTU4MGQtODA3ZC05M2Y0M2NmOTg2YjEtYXR0ci0xMS1jb21tZW50IiBjbGFzcz0iZXIgZW50aXR5TGFiZWwiPjwvdGV4dD48L2c+PGcgdHJhbnNmb3JtPSJ0cmFuc2xhdGUoOTYuMDA2ODM1OTM3NSw1OTcuOTk5OTkyMzcwNjA1NSApIiBpZD0iZW50aXR5LVBST01PVElPTi04MWM1ZGEwZC1mMzg4LTVjYmUtODBlMy1iMTNhNTk0ODkyNTgiPjxyZWN0IGhlaWdodD0iMjIxLjYwMDAwMDM4MTQ2OTczIiB3aWR0aD0iMTgzLjYwMjE0OTAwOTcwNDYiIHk9IjAiIHg9IjAiIGNsYXNzPSJlciBlbnRpdHlCb3giPjwvcmVjdD48dGV4dCB0cmFuc2Zvcm09InRyYW5zbGF0ZSg5MS44MDEwNzQ1MDQ4NTIzLDExLjgwMDAwMDE5MDczNDg2MykiIHN0eWxlPSJkb21pbmFudC1iYXNlbGluZTogbWlkZGxlOyB0ZXh0LWFuY2hvcjogbWlkZGxlOyBmb250LXNpemU6IDEycHg7IiB5PSIwIiB4PSIwIiBpZD0idGV4dC1lbnRpdHktUFJPTU9USU9OLTgxYzVkYTBkLWYzODgtNWNiZS04MGUzLWIxM2E1OTQ4OTI1OCIgY2xhc3M9ImVyIGVudGl0eUxhYmVsIj5QUk9NT1RJT048L3RleHQ+PHJlY3QgaGVpZ2h0PSIyMiIgd2lkdGg9IjUyLjg5NTAxOTUzMTI1IiB5PSIyMy42MDAwMDAzODE0Njk3MjciIHg9IjAiIGNsYXNzPSJlciBhdHRyaWJ1dGVCb3hPZGQiPjwvcmVjdD48dGV4dCB0cmFuc2Zvcm09InRyYW5zbGF0ZSg1LDM0LjYwMDAwMDM4MTQ2OTczKSIgc3R5bGU9ImRvbWluYW50LWJhc2VsaW5lOiBtaWRkbGU7IGZvbnQtc2l6ZTogMTAuMnB4OyIgeT0iMCIgeD0iMCIgaWQ9InRleHQtZW50aXR5LVBST01PVElPTi04MWM1ZGEwZC1mMzg4LTVjYmUtODBlMy1iMTNhNTk0ODkyNTgtYXR0ci0xLXR5cGUiIGNsYXNzPSJlciBlbnRpdHlMYWJlbCI+SU5UPC90ZXh0PjxyZWN0IGhlaWdodD0iMjIiIHdpZHRoPSI2My41NDk5OTkyMzcwNjA1NSIgeT0iMjMuNjAwMDAwMzgxNDY5NzI3IiB4PSI1Mi44OTUwMTk1MzEyNSIgY2xhc3M9ImVyIGF0dHJpYnV0ZUJveE9kZCI+PC9yZWN0Pjx0ZXh0IHRyYW5zZm9ybT0idHJhbnNsYXRlKDU3Ljg5NTAxOTUzMTI1LDM0LjYwMDAwMDM4MTQ2OTczKSIgc3R5bGU9ImRvbWluYW50LWJhc2VsaW5lOiBtaWRkbGU7IGZvbnQtc2l6ZTogMTAuMnB4OyIgeT0iMCIgeD0iMCIgaWQ9InRleHQtZW50aXR5LVBST01PVElPTi04MWM1ZGEwZC1mMzg4LTVjYmUtODBlMy1iMTNhNTk0ODkyNTgtYXR0ci0xLW5hbWUiIGNsYXNzPSJlciBlbnRpdHlMYWJlbCI+aWQ8L3RleHQ+PHJlY3QgaGVpZ2h0PSIyMiIgd2lkdGg9IjIyLjA4NzY5NTEyMTc2NTEzNyIgeT0iMjMuNjAwMDAwMzgxNDY5NzI3IiB4PSIxMTYuNDQ1MDE4NzY4MzEwNTUiIGNsYXNzPSJlciBhdHRyaWJ1dGVCb3hPZGQiPjwvcmVjdD48dGV4dCB0cmFuc2Zvcm09InRyYW5zbGF0ZSgxMjEuNDQ1MDE4NzY4MzEwNTUsMzQuNjAwMDAwMzgxNDY5NzMpIiBzdHlsZT0iZG9taW5hbnQtYmFzZWxpbmU6IG1pZGRsZTsgZm9udC1zaXplOiAxMC4ycHg7IiB5PSIwIiB4PSIwIiBpZD0idGV4dC1lbnRpdHktUFJPTU9USU9OLTgxYzVkYTBkLWYzODgtNWNiZS04MGUzLWIxM2E1OTQ4OTI1OC1hdHRyLTEta2V5IiBjbGFzcz0iZXIgZW50aXR5TGFiZWwiPlBLPC90ZXh0PjxyZWN0IGhlaWdodD0iMjIiIHdpZHRoPSI0NS4wNjk0MzUxMTk2Mjg5MDYiIHk9IjIzLjYwMDAwMDM4MTQ2OTcyNyIgeD0iMTM4LjUzMjcxMzg5MDA3NTY4IiBjbGFzcz0iZXIgYXR0cmlidXRlQm94T2RkIj48L3JlY3Q+PHRleHQgdHJhbnNmb3JtPSJ0cmFuc2xhdGUoMTQzLjUzMjcxMzg5MDA3NTY4LDM0LjYwMDAwMDM4MTQ2OTczKSIgc3R5bGU9ImRvbWluYW50LWJhc2VsaW5lOiBtaWRkbGU7IGZvbnQtc2l6ZTogMTAuMnB4OyIgeT0iMCIgeD0iMCIgaWQ9InRleHQtZW50aXR5LVBST01PVElPTi04MWM1ZGEwZC1mMzg4LTVjYmUtODBlMy1iMTNhNTk0ODkyNTgtYXR0ci0xLWNvbW1lbnQiIGNsYXNzPSJlciBlbnRpdHlMYWJlbCI+PC90ZXh0PjxyZWN0IGhlaWdodD0iMjIiIHdpZHRoPSI1Mi44OTUwMTk1MzEyNSIgeT0iNDUuNjAwMDAwMzgxNDY5NzMiIHg9IjAiIGNsYXNzPSJlciBhdHRyaWJ1dGVCb3hFdmVuIj48L3JlY3Q+PHRleHQgdHJhbnNmb3JtPSJ0cmFuc2xhdGUoNSw1Ni42MDAwMDAzODE0Njk3MykiIHN0eWxlPSJkb21pbmFudC1iYXNlbGluZTogbWlkZGxlOyBmb250LXNpemU6IDEwLjJweDsiIHk9IjAiIHg9IjAiIGlkPSJ0ZXh0LWVudGl0eS1QUk9NT1RJT04tODFjNWRhMGQtZjM4OC01Y2JlLTgwZTMtYjEzYTU5NDg5MjU4LWF0dHItMi10eXBlIiBjbGFzcz0iZXIgZW50aXR5TGFiZWwiPklOVDwvdGV4dD48cmVjdCBoZWlnaHQ9IjIyIiB3aWR0aD0iNjMuNTQ5OTk5MjM3MDYwNTUiIHk9IjQ1LjYwMDAwMDM4MTQ2OTczIiB4PSI1Mi44OTUwMTk1MzEyNSIgY2xhc3M9ImVyIGF0dHJpYnV0ZUJveEV2ZW4iPjwvcmVjdD48dGV4dCB0cmFuc2Zvcm09InRyYW5zbGF0ZSg1Ny44OTUwMTk1MzEyNSw1Ni42MDAwMDAzODE0Njk3MykiIHN0eWxlPSJkb21pbmFudC1iYXNlbGluZTogbWlkZGxlOyBmb250LXNpemU6IDEwLjJweDsiIHk9IjAiIHg9IjAiIGlkPSJ0ZXh0LWVudGl0eS1QUk9NT1RJT04tODFjNWRhMGQtZjM4OC01Y2JlLTgwZTMtYjEzYTU5NDg5MjU4LWF0dHItMi1uYW1lIiBjbGFzcz0iZXIgZW50aXR5TGFiZWwiPmJ1c2luZXNzX2lkPC90ZXh0PjxyZWN0IGhlaWdodD0iMjIiIHdpZHRoPSIyMi4wODc2OTUxMjE3NjUxMzciIHk9IjQ1LjYwMDAwMDM4MTQ2OTczIiB4PSIxMTYuNDQ1MDE4NzY4MzEwNTUiIGNsYXNzPSJlciBhdHRyaWJ1dGVCb3hFdmVuIj48L3JlY3Q+PHRleHQgdHJhbnNmb3JtPSJ0cmFuc2xhdGUoMTIxLjQ0NTAxODc2ODMxMDU1LDU2LjYwMDAwMDM4MTQ2OTczKSIgc3R5bGU9ImRvbWluYW50LWJhc2VsaW5lOiBtaWRkbGU7IGZvbnQtc2l6ZTogMTAuMnB4OyIgeT0iMCIgeD0iMCIgaWQ9InRleHQtZW50aXR5LVBST01PVElPTi04MWM1ZGEwZC1mMzg4LTVjYmUtODBlMy1iMTNhNTk0ODkyNTgtYXR0ci0yLWtleSIgY2xhc3M9ImVyIGVudGl0eUxhYmVsIj5GSzwvdGV4dD48cmVjdCBoZWlnaHQ9IjIyIiB3aWR0aD0iNDUuMDY5NDM1MTE5NjI4OTA2IiB5PSI0NS42MDAwMDAzODE0Njk3MyIgeD0iMTM4LjUzMjcxMzg5MDA3NTY4IiBjbGFzcz0iZXIgYXR0cmlidXRlQm94RXZlbiI+PC9yZWN0Pjx0ZXh0IHRyYW5zZm9ybT0idHJhbnNsYXRlKDE0My41MzI3MTM4OTAwNzU2OCw1Ni42MDAwMDAzODE0Njk3MykiIHN0eWxlPSJkb21pbmFudC1iYXNlbGluZTogbWlkZGxlOyBmb250LXNpemU6IDEwLjJweDsiIHk9IjAiIHg9IjAiIGlkPSJ0ZXh0LWVudGl0eS1QUk9NT1RJT04tODFjNWRhMGQtZjM4OC01Y2JlLTgwZTMtYjEzYTU5NDg5MjU4LWF0dHItMi1jb21tZW50IiBjbGFzcz0iZXIgZW50aXR5TGFiZWwiPjwvdGV4dD48cmVjdCBoZWlnaHQ9IjIyIiB3aWR0aD0iNTIuODk1MDE5NTMxMjUiIHk9IjY3LjYwMDAwMDM4MTQ2OTczIiB4PSIwIiBjbGFzcz0iZXIgYXR0cmlidXRlQm94T2RkIj48L3JlY3Q+PHRleHQgdHJhbnNmb3JtPSJ0cmFuc2xhdGUoNSw3OC42MDAwMDAzODE0Njk3MykiIHN0eWxlPSJkb21pbmFudC1iYXNlbGluZTogbWlkZGxlOyBmb250LXNpemU6IDEwLjJweDsiIHk9IjAiIHg9IjAiIGlkPSJ0ZXh0LWVudGl0eS1QUk9NT1RJT04tODFjNWRhMGQtZjM4OC01Y2JlLTgwZTMtYjEzYTU5NDg5MjU4LWF0dHItMy10eXBlIiBjbGFzcz0iZXIgZW50aXR5TGFiZWwiPklOVDwvdGV4dD48cmVjdCBoZWlnaHQ9IjIyIiB3aWR0aD0iNjMuNTQ5OTk5MjM3MDYwNTUiIHk9IjY3LjYwMDAwMDM4MTQ2OTczIiB4PSI1Mi44OTUwMTk1MzEyNSIgY2xhc3M9ImVyIGF0dHJpYnV0ZUJveE9kZCI+PC9yZWN0Pjx0ZXh0IHRyYW5zZm9ybT0idHJhbnNsYXRlKDU3Ljg5NTAxOTUzMTI1LDc4LjYwMDAwMDM4MTQ2OTczKSIgc3R5bGU9ImRvbWluYW50LWJhc2VsaW5lOiBtaWRkbGU7IGZvbnQtc2l6ZTogMTAuMnB4OyIgeT0iMCIgeD0iMCIgaWQ9InRleHQtZW50aXR5LVBST01PVElPTi04MWM1ZGEwZC1mMzg4LTVjYmUtODBlMy1iMTNhNTk0ODkyNTgtYXR0ci0zLW5hbWUiIGNsYXNzPSJlciBlbnRpdHlMYWJlbCI+Y2F0ZWdvcnlfaWQ8L3RleHQ+PHJlY3QgaGVpZ2h0PSIyMiIgd2lkdGg9IjIyLjA4NzY5NTEyMTc2NTEzNyIgeT0iNjcuNjAwMDAwMzgxNDY5NzMiIHg9IjExNi40NDUwMTg3NjgzMTA1NSIgY2xhc3M9ImVyIGF0dHJpYnV0ZUJveE9kZCI+PC9yZWN0Pjx0ZXh0IHRyYW5zZm9ybT0idHJhbnNsYXRlKDEyMS40NDUwMTg3NjgzMTA1NSw3OC42MDAwMDAzODE0Njk3MykiIHN0eWxlPSJkb21pbmFudC1iYXNlbGluZTogbWlkZGxlOyBmb250LXNpemU6IDEwLjJweDsiIHk9IjAiIHg9IjAiIGlkPSJ0ZXh0LWVudGl0eS1QUk9NT1RJT04tODFjNWRhMGQtZjM4OC01Y2JlLTgwZTMtYjEzYTU5NDg5MjU4LWF0dHItMy1rZXkiIGNsYXNzPSJlciBlbnRpdHlMYWJlbCI+Rks8L3RleHQ+PHJlY3QgaGVpZ2h0PSIyMiIgd2lkdGg9IjQ1LjA2OTQzNTExOTYyODkwNiIgeT0iNjcuNjAwMDAwMzgxNDY5NzMiIHg9IjEzOC41MzI3MTM4OTAwNzU2OCIgY2xhc3M9ImVyIGF0dHJpYnV0ZUJveE9kZCI+PC9yZWN0Pjx0ZXh0IHRyYW5zZm9ybT0idHJhbnNsYXRlKDE0My41MzI3MTM4OTAwNzU2OCw3OC42MDAwMDAzODE0Njk3MykiIHN0eWxlPSJkb21pbmFudC1iYXNlbGluZTogbWlkZGxlOyBmb250LXNpemU6IDEwLjJweDsiIHk9IjAiIHg9IjAiIGlkPSJ0ZXh0LWVudGl0eS1QUk9NT1RJT04tODFjNWRhMGQtZjM4OC01Y2JlLTgwZTMtYjEzYTU5NDg5MjU4LWF0dHItMy1jb21tZW50IiBjbGFzcz0iZXIgZW50aXR5TGFiZWwiPjwvdGV4dD48cmVjdCBoZWlnaHQ9IjIyIiB3aWR0aD0iNTIuODk1MDE5NTMxMjUiIHk9Ijg5LjYwMDAwMDM4MTQ2OTczIiB4PSIwIiBjbGFzcz0iZXIgYXR0cmlidXRlQm94RXZlbiI+PC9yZWN0Pjx0ZXh0IHRyYW5zZm9ybT0idHJhbnNsYXRlKDUsMTAwLjYwMDAwMDM4MTQ2OTczKSIgc3R5bGU9ImRvbWluYW50LWJhc2VsaW5lOiBtaWRkbGU7IGZvbnQtc2l6ZTogMTAuMnB4OyIgeT0iMCIgeD0iMCIgaWQ9InRleHQtZW50aXR5LVBST01PVElPTi04MWM1ZGEwZC1mMzg4LTVjYmUtODBlMy1iMTNhNTk0ODkyNTgtYXR0ci00LXR5cGUiIGNsYXNzPSJlciBlbnRpdHlMYWJlbCI+VkFSQ0hBUjwvdGV4dD48cmVjdCBoZWlnaHQ9IjIyIiB3aWR0aD0iNjMuNTQ5OTk5MjM3MDYwNTUiIHk9Ijg5LjYwMDAwMDM4MTQ2OTczIiB4PSI1Mi44OTUwMTk1MzEyNSIgY2xhc3M9ImVyIGF0dHJpYnV0ZUJveEV2ZW4iPjwvcmVjdD48dGV4dCB0cmFuc2Zvcm09InRyYW5zbGF0ZSg1Ny44OTUwMTk1MzEyNSwxMDAuNjAwMDAwMzgxNDY5NzMpIiBzdHlsZT0iZG9taW5hbnQtYmFzZWxpbmU6IG1pZGRsZTsgZm9udC1zaXplOiAxMC4ycHg7IiB5PSIwIiB4PSIwIiBpZD0idGV4dC1lbnRpdHktUFJPTU9USU9OLTgxYzVkYTBkLWYzODgtNWNiZS04MGUzLWIxM2E1OTQ4OTI1OC1hdHRyLTQtbmFtZSIgY2xhc3M9ImVyIGVudGl0eUxhYmVsIj50aXRsZTwvdGV4dD48cmVjdCBoZWlnaHQ9IjIyIiB3aWR0aD0iMjIuMDg3Njk1MTIxNzY1MTM3IiB5PSI4OS42MDAwMDAzODE0Njk3MyIgeD0iMTE2LjQ0NTAxODc2ODMxMDU1IiBjbGFzcz0iZXIgYXR0cmlidXRlQm94RXZlbiI+PC9yZWN0Pjx0ZXh0IHRyYW5zZm9ybT0idHJhbnNsYXRlKDEyMS40NDUwMTg3NjgzMTA1NSwxMDAuNjAwMDAwMzgxNDY5NzMpIiBzdHlsZT0iZG9taW5hbnQtYmFzZWxpbmU6IG1pZGRsZTsgZm9udC1zaXplOiAxMC4ycHg7IiB5PSIwIiB4PSIwIiBpZD0idGV4dC1lbnRpdHktUFJPTU9USU9OLTgxYzVkYTBkLWYzODgtNWNiZS04MGUzLWIxM2E1OTQ4OTI1OC1hdHRyLTQta2V5IiBjbGFzcz0iZXIgZW50aXR5TGFiZWwiPjwvdGV4dD48cmVjdCBoZWlnaHQ9IjIyIiB3aWR0aD0iNDUuMDY5NDM1MTE5NjI4OTA2IiB5PSI4OS42MDAwMDAzODE0Njk3MyIgeD0iMTM4LjUzMjcxMzg5MDA3NTY4IiBjbGFzcz0iZXIgYXR0cmlidXRlQm94RXZlbiI+PC9yZWN0Pjx0ZXh0IHRyYW5zZm9ybT0idHJhbnNsYXRlKDE0My41MzI3MTM4OTAwNzU2OCwxMDAuNjAwMDAwMzgxNDY5NzMpIiBzdHlsZT0iZG9taW5hbnQtYmFzZWxpbmU6IG1pZGRsZTsgZm9udC1zaXplOiAxMC4ycHg7IiB5PSIwIiB4PSIwIiBpZD0idGV4dC1lbnRpdHktUFJPTU9USU9OLTgxYzVkYTBkLWYzODgtNWNiZS04MGUzLWIxM2E1OTQ4OTI1OC1hdHRyLTQtY29tbWVudCIgY2xhc3M9ImVyIGVudGl0eUxhYmVsIj4xMDA8L3RleHQ+PHJlY3QgaGVpZ2h0PSIyMiIgd2lkdGg9IjUyLjg5NTAxOTUzMTI1IiB5PSIxMTEuNjAwMDAwMzgxNDY5NzMiIHg9IjAiIGNsYXNzPSJlciBhdHRyaWJ1dGVCb3hPZGQiPjwvcmVjdD48dGV4dCB0cmFuc2Zvcm09InRyYW5zbGF0ZSg1LDEyMi42MDAwMDAzODE0Njk3MykiIHN0eWxlPSJkb21pbmFudC1iYXNlbGluZTogbWlkZGxlOyBmb250LXNpemU6IDEwLjJweDsiIHk9IjAiIHg9IjAiIGlkPSJ0ZXh0LWVudGl0eS1QUk9NT1RJT04tODFjNWRhMGQtZjM4OC01Y2JlLTgwZTMtYjEzYTU5NDg5MjU4LWF0dHItNS10eXBlIiBjbGFzcz0iZXIgZW50aXR5TGFiZWwiPlZBUkNIQVI8L3RleHQ+PHJlY3QgaGVpZ2h0PSIyMiIgd2lkdGg9IjYzLjU0OTk5OTIzNzA2MDU1IiB5PSIxMTEuNjAwMDAwMzgxNDY5NzMiIHg9IjUyLjg5NTAxOTUzMTI1IiBjbGFzcz0iZXIgYXR0cmlidXRlQm94T2RkIj48L3JlY3Q+PHRleHQgdHJhbnNmb3JtPSJ0cmFuc2xhdGUoNTcuODk1MDE5NTMxMjUsMTIyLjYwMDAwMDM4MTQ2OTczKSIgc3R5bGU9ImRvbWluYW50LWJhc2VsaW5lOiBtaWRkbGU7IGZvbnQtc2l6ZTogMTAuMnB4OyIgeT0iMCIgeD0iMCIgaWQ9InRleHQtZW50aXR5LVBST01PVElPTi04MWM1ZGEwZC1mMzg4LTVjYmUtODBlMy1iMTNhNTk0ODkyNTgtYXR0ci01LW5hbWUiIGNsYXNzPSJlciBlbnRpdHlMYWJlbCI+c2x1ZzwvdGV4dD48cmVjdCBoZWlnaHQ9IjIyIiB3aWR0aD0iMjIuMDg3Njk1MTIxNzY1MTM3IiB5PSIxMTEuNjAwMDAwMzgxNDY5NzMiIHg9IjExNi40NDUwMTg3NjgzMTA1NSIgY2xhc3M9ImVyIGF0dHJpYnV0ZUJveE9kZCI+PC9yZWN0Pjx0ZXh0IHRyYW5zZm9ybT0idHJhbnNsYXRlKDEyMS40NDUwMTg3NjgzMTA1NSwxMjIuNjAwMDAwMzgxNDY5NzMpIiBzdHlsZT0iZG9taW5hbnQtYmFzZWxpbmU6IG1pZGRsZTsgZm9udC1zaXplOiAxMC4ycHg7IiB5PSIwIiB4PSIwIiBpZD0idGV4dC1lbnRpdHktUFJPTU9USU9OLTgxYzVkYTBkLWYzODgtNWNiZS04MGUzLWIxM2E1OTQ4OTI1OC1hdHRyLTUta2V5IiBjbGFzcz0iZXIgZW50aXR5TGFiZWwiPjwvdGV4dD48cmVjdCBoZWlnaHQ9IjIyIiB3aWR0aD0iNDUuMDY5NDM1MTE5NjI4OTA2IiB5PSIxMTEuNjAwMDAwMzgxNDY5NzMiIHg9IjEzOC41MzI3MTM4OTAwNzU2OCIgY2xhc3M9ImVyIGF0dHJpYnV0ZUJveE9kZCI+PC9yZWN0Pjx0ZXh0IHRyYW5zZm9ybT0idHJhbnNsYXRlKDE0My41MzI3MTM4OTAwNzU2OCwxMjIuNjAwMDAwMzgxNDY5NzMpIiBzdHlsZT0iZG9taW5hbnQtYmFzZWxpbmU6IG1pZGRsZTsgZm9udC1zaXplOiAxMC4ycHg7IiB5PSIwIiB4PSIwIiBpZD0idGV4dC1lbnRpdHktUFJPTU9USU9OLTgxYzVkYTBkLWYzODgtNWNiZS04MGUzLWIxM2E1OTQ4OTI1OC1hdHRyLTUtY29tbWVudCIgY2xhc3M9ImVyIGVudGl0eUxhYmVsIj5VTklRVUU8L3RleHQ+PHJlY3QgaGVpZ2h0PSIyMiIgd2lkdGg9IjUyLjg5NTAxOTUzMTI1IiB5PSIxMzMuNjAwMDAwMzgxNDY5NzMiIHg9IjAiIGNsYXNzPSJlciBhdHRyaWJ1dGVCb3hFdmVuIj48L3JlY3Q+PHRleHQgdHJhbnNmb3JtPSJ0cmFuc2xhdGUoNSwxNDQuNjAwMDAwMzgxNDY5NzMpIiBzdHlsZT0iZG9taW5hbnQtYmFzZWxpbmU6IG1pZGRsZTsgZm9udC1zaXplOiAxMC4ycHg7IiB5PSIwIiB4PSIwIiBpZD0idGV4dC1lbnRpdHktUFJPTU9USU9OLTgxYzVkYTBkLWYzODgtNWNiZS04MGUzLWIxM2E1OTQ4OTI1OC1hdHRyLTYtdHlwZSIgY2xhc3M9ImVyIGVudGl0eUxhYmVsIj5URVhUPC90ZXh0PjxyZWN0IGhlaWdodD0iMjIiIHdpZHRoPSI2My41NDk5OTkyMzcwNjA1NSIgeT0iMTMzLjYwMDAwMDM4MTQ2OTczIiB4PSI1Mi44OTUwMTk1MzEyNSIgY2xhc3M9ImVyIGF0dHJpYnV0ZUJveEV2ZW4iPjwvcmVjdD48dGV4dCB0cmFuc2Zvcm09InRyYW5zbGF0ZSg1Ny44OTUwMTk1MzEyNSwxNDQuNjAwMDAwMzgxNDY5NzMpIiBzdHlsZT0iZG9taW5hbnQtYmFzZWxpbmU6IG1pZGRsZTsgZm9udC1zaXplOiAxMC4ycHg7IiB5PSIwIiB4PSIwIiBpZD0idGV4dC1lbnRpdHktUFJPTU9USU9OLTgxYzVkYTBkLWYzODgtNWNiZS04MGUzLWIxM2E1OTQ4OTI1OC1hdHRyLTYtbmFtZSIgY2xhc3M9ImVyIGVudGl0eUxhYmVsIj5kZXNjcmlwdGlvbjwvdGV4dD48cmVjdCBoZWlnaHQ9IjIyIiB3aWR0aD0iMjIuMDg3Njk1MTIxNzY1MTM3IiB5PSIxMzMuNjAwMDAwMzgxNDY5NzMiIHg9IjExNi40NDUwMTg3NjgzMTA1NSIgY2xhc3M9ImVyIGF0dHJpYnV0ZUJveEV2ZW4iPjwvcmVjdD48dGV4dCB0cmFuc2Zvcm09InRyYW5zbGF0ZSgxMjEuNDQ1MDE4NzY4MzEwNTUsMTQ0LjYwMDAwMDM4MTQ2OTczKSIgc3R5bGU9ImRvbWluYW50LWJhc2VsaW5lOiBtaWRkbGU7IGZvbnQtc2l6ZTogMTAuMnB4OyIgeT0iMCIgeD0iMCIgaWQ9InRleHQtZW50aXR5LVBST01PVElPTi04MWM1ZGEwZC1mMzg4LTVjYmUtODBlMy1iMTNhNTk0ODkyNTgtYXR0ci02LWtleSIgY2xhc3M9ImVyIGVudGl0eUxhYmVsIj48L3RleHQ+PHJlY3QgaGVpZ2h0PSIyMiIgd2lkdGg9IjQ1LjA2OTQzNTExOTYyODkwNiIgeT0iMTMzLjYwMDAwMDM4MTQ2OTczIiB4PSIxMzguNTMyNzEzODkwMDc1NjgiIGNsYXNzPSJlciBhdHRyaWJ1dGVCb3hFdmVuIj48L3JlY3Q+PHRleHQgdHJhbnNmb3JtPSJ0cmFuc2xhdGUoMTQzLjUzMjcxMzg5MDA3NTY4LDE0NC42MDAwMDAzODE0Njk3MykiIHN0eWxlPSJkb21pbmFudC1iYXNlbGluZTogbWlkZGxlOyBmb250LXNpemU6IDEwLjJweDsiIHk9IjAiIHg9IjAiIGlkPSJ0ZXh0LWVudGl0eS1QUk9NT1RJT04tODFjNWRhMGQtZjM4OC01Y2JlLTgwZTMtYjEzYTU5NDg5MjU4LWF0dHItNi1jb21tZW50IiBjbGFzcz0iZXIgZW50aXR5TGFiZWwiPjwvdGV4dD48cmVjdCBoZWlnaHQ9IjIyIiB3aWR0aD0iNTIuODk1MDE5NTMxMjUiIHk9IjE1NS42MDAwMDAzODE0Njk3MyIgeD0iMCIgY2xhc3M9ImVyIGF0dHJpYnV0ZUJveE9kZCI+PC9yZWN0Pjx0ZXh0IHRyYW5zZm9ybT0idHJhbnNsYXRlKDUsMTY2LjYwMDAwMDM4MTQ2OTczKSIgc3R5bGU9ImRvbWluYW50LWJhc2VsaW5lOiBtaWRkbGU7IGZvbnQtc2l6ZTogMTAuMnB4OyIgeT0iMCIgeD0iMCIgaWQ9InRleHQtZW50aXR5LVBST01PVElPTi04MWM1ZGEwZC1mMzg4LTVjYmUtODBlMy1iMTNhNTk0ODkyNTgtYXR0ci03LXR5cGUiIGNsYXNzPSJlciBlbnRpdHlMYWJlbCI+VkFSQ0hBUjwvdGV4dD48cmVjdCBoZWlnaHQ9IjIyIiB3aWR0aD0iNjMuNTQ5OTk5MjM3MDYwNTUiIHk9IjE1NS42MDAwMDAzODE0Njk3MyIgeD0iNTIuODk1MDE5NTMxMjUiIGNsYXNzPSJlciBhdHRyaWJ1dGVCb3hPZGQiPjwvcmVjdD48dGV4dCB0cmFuc2Zvcm09InRyYW5zbGF0ZSg1Ny44OTUwMTk1MzEyNSwxNjYuNjAwMDAwMzgxNDY5NzMpIiBzdHlsZT0iZG9taW5hbnQtYmFzZWxpbmU6IG1pZGRsZTsgZm9udC1zaXplOiAxMC4ycHg7IiB5PSIwIiB4PSIwIiBpZD0idGV4dC1lbnRpdHktUFJPTU9USU9OLTgxYzVkYTBkLWYzODgtNWNiZS04MGUzLWIxM2E1OTQ4OTI1OC1hdHRyLTctbmFtZSIgY2xhc3M9ImVyIGVudGl0eUxhYmVsIj5pbWFnZTwvdGV4dD48cmVjdCBoZWlnaHQ9IjIyIiB3aWR0aD0iMjIuMDg3Njk1MTIxNzY1MTM3IiB5PSIxNTUuNjAwMDAwMzgxNDY5NzMiIHg9IjExNi40NDUwMTg3NjgzMTA1NSIgY2xhc3M9ImVyIGF0dHJpYnV0ZUJveE9kZCI+PC9yZWN0Pjx0ZXh0IHRyYW5zZm9ybT0idHJhbnNsYXRlKDEyMS40NDUwMTg3NjgzMTA1NSwxNjYuNjAwMDAwMzgxNDY5NzMpIiBzdHlsZT0iZG9taW5hbnQtYmFzZWxpbmU6IG1pZGRsZTsgZm9udC1zaXplOiAxMC4ycHg7IiB5PSIwIiB4PSIwIiBpZD0idGV4dC1lbnRpdHktUFJPTU9USU9OLTgxYzVkYTBkLWYzODgtNWNiZS04MGUzLWIxM2E1OTQ4OTI1OC1hdHRyLTcta2V5IiBjbGFzcz0iZXIgZW50aXR5TGFiZWwiPjwvdGV4dD48cmVjdCBoZWlnaHQ9IjIyIiB3aWR0aD0iNDUuMDY5NDM1MTE5NjI4OTA2IiB5PSIxNTUuNjAwMDAwMzgxNDY5NzMiIHg9IjEzOC41MzI3MTM4OTAwNzU2OCIgY2xhc3M9ImVyIGF0dHJpYnV0ZUJveE9kZCI+PC9yZWN0Pjx0ZXh0IHRyYW5zZm9ybT0idHJhbnNsYXRlKDE0My41MzI3MTM4OTAwNzU2OCwxNjYuNjAwMDAwMzgxNDY5NzMpIiBzdHlsZT0iZG9taW5hbnQtYmFzZWxpbmU6IG1pZGRsZTsgZm9udC1zaXplOiAxMC4ycHg7IiB5PSIwIiB4PSIwIiBpZD0idGV4dC1lbnRpdHktUFJPTU9USU9OLTgxYzVkYTBkLWYzODgtNWNiZS04MGUzLWIxM2E1OTQ4OTI1OC1hdHRyLTctY29tbWVudCIgY2xhc3M9ImVyIGVudGl0eUxhYmVsIj48L3RleHQ+PHJlY3QgaGVpZ2h0PSIyMiIgd2lkdGg9IjUyLjg5NTAxOTUzMTI1IiB5PSIxNzcuNjAwMDAwMzgxNDY5NzMiIHg9IjAiIGNsYXNzPSJlciBhdHRyaWJ1dGVCb3hFdmVuIj48L3JlY3Q+PHRleHQgdHJhbnNmb3JtPSJ0cmFuc2xhdGUoNSwxODguNjAwMDAwMzgxNDY5NzMpIiBzdHlsZT0iZG9taW5hbnQtYmFzZWxpbmU6IG1pZGRsZTsgZm9udC1zaXplOiAxMC4ycHg7IiB5PSIwIiB4PSIwIiBpZD0idGV4dC1lbnRpdHktUFJPTU9USU9OLTgxYzVkYTBkLWYzODgtNWNiZS04MGUzLWIxM2E1OTQ4OTI1OC1hdHRyLTgtdHlwZSIgY2xhc3M9ImVyIGVudGl0eUxhYmVsIj5EQVRFPC90ZXh0PjxyZWN0IGhlaWdodD0iMjIiIHdpZHRoPSI2My41NDk5OTkyMzcwNjA1NSIgeT0iMTc3LjYwMDAwMDM4MTQ2OTczIiB4PSI1Mi44OTUwMTk1MzEyNSIgY2xhc3M9ImVyIGF0dHJpYnV0ZUJveEV2ZW4iPjwvcmVjdD48dGV4dCB0cmFuc2Zvcm09InRyYW5zbGF0ZSg1Ny44OTUwMTk1MzEyNSwxODguNjAwMDAwMzgxNDY5NzMpIiBzdHlsZT0iZG9taW5hbnQtYmFzZWxpbmU6IG1pZGRsZTsgZm9udC1zaXplOiAxMC4ycHg7IiB5PSIwIiB4PSIwIiBpZD0idGV4dC1lbnRpdHktUFJPTU9USU9OLTgxYzVkYTBkLWYzODgtNWNiZS04MGUzLWIxM2E1OTQ4OTI1OC1hdHRyLTgtbmFtZSIgY2xhc3M9ImVyIGVudGl0eUxhYmVsIj5zdGFydF9kYXRlPC90ZXh0PjxyZWN0IGhlaWdodD0iMjIiIHdpZHRoPSIyMi4wODc2OTUxMjE3NjUxMzciIHk9IjE3Ny42MDAwMDAzODE0Njk3MyIgeD0iMTE2LjQ0NTAxODc2ODMxMDU1IiBjbGFzcz0iZXIgYXR0cmlidXRlQm94RXZlbiI+PC9yZWN0Pjx0ZXh0IHRyYW5zZm9ybT0idHJhbnNsYXRlKDEyMS40NDUwMTg3NjgzMTA1NSwxODguNjAwMDAwMzgxNDY5NzMpIiBzdHlsZT0iZG9taW5hbnQtYmFzZWxpbmU6IG1pZGRsZTsgZm9udC1zaXplOiAxMC4ycHg7IiB5PSIwIiB4PSIwIiBpZD0idGV4dC1lbnRpdHktUFJPTU9USU9OLTgxYzVkYTBkLWYzODgtNWNiZS04MGUzLWIxM2E1OTQ4OTI1OC1hdHRyLTgta2V5IiBjbGFzcz0iZXIgZW50aXR5TGFiZWwiPjwvdGV4dD48cmVjdCBoZWlnaHQ9IjIyIiB3aWR0aD0iNDUuMDY5NDM1MTE5NjI4OTA2IiB5PSIxNzcuNjAwMDAwMzgxNDY5NzMiIHg9IjEzOC41MzI3MTM4OTAwNzU2OCIgY2xhc3M9ImVyIGF0dHJpYnV0ZUJveEV2ZW4iPjwvcmVjdD48dGV4dCB0cmFuc2Zvcm09InRyYW5zbGF0ZSgxNDMuNTMyNzEzODkwMDc1NjgsMTg4LjYwMDAwMDM4MTQ2OTczKSIgc3R5bGU9ImRvbWluYW50LWJhc2VsaW5lOiBtaWRkbGU7IGZvbnQtc2l6ZTogMTAuMnB4OyIgeT0iMCIgeD0iMCIgaWQ9InRleHQtZW50aXR5LVBST01PVElPTi04MWM1ZGEwZC1mMzg4LTVjYmUtODBlMy1iMTNhNTk0ODkyNTgtYXR0ci04LWNvbW1lbnQiIGNsYXNzPSJlciBlbnRpdHlMYWJlbCI+PC90ZXh0PjxyZWN0IGhlaWdodD0iMjIiIHdpZHRoPSI1Mi44OTUwMTk1MzEyNSIgeT0iMTk5LjYwMDAwMDM4MTQ2OTczIiB4PSIwIiBjbGFzcz0iZXIgYXR0cmlidXRlQm94T2RkIj48L3JlY3Q+PHRleHQgdHJhbnNmb3JtPSJ0cmFuc2xhdGUoNSwyMTAuNjAwMDAwMzgxNDY5NzMpIiBzdHlsZT0iZG9taW5hbnQtYmFzZWxpbmU6IG1pZGRsZTsgZm9udC1zaXplOiAxMC4ycHg7IiB5PSIwIiB4PSIwIiBpZD0idGV4dC1lbnRpdHktUFJPTU9USU9OLTgxYzVkYTBkLWYzODgtNWNiZS04MGUzLWIxM2E1OTQ4OTI1OC1hdHRyLTktdHlwZSIgY2xhc3M9ImVyIGVudGl0eUxhYmVsIj5EQVRFPC90ZXh0PjxyZWN0IGhlaWdodD0iMjIiIHdpZHRoPSI2My41NDk5OTkyMzcwNjA1NSIgeT0iMTk5LjYwMDAwMDM4MTQ2OTczIiB4PSI1Mi44OTUwMTk1MzEyNSIgY2xhc3M9ImVyIGF0dHJpYnV0ZUJveE9kZCI+PC9yZWN0Pjx0ZXh0IHRyYW5zZm9ybT0idHJhbnNsYXRlKDU3Ljg5NTAxOTUzMTI1LDIxMC42MDAwMDAzODE0Njk3MykiIHN0eWxlPSJkb21pbmFudC1iYXNlbGluZTogbWlkZGxlOyBmb250LXNpemU6IDEwLjJweDsiIHk9IjAiIHg9IjAiIGlkPSJ0ZXh0LWVudGl0eS1QUk9NT1RJT04tODFjNWRhMGQtZjM4OC01Y2JlLTgwZTMtYjEzYTU5NDg5MjU4LWF0dHItOS1uYW1lIiBjbGFzcz0iZXIgZW50aXR5TGFiZWwiPmVuZF9kYXRlPC90ZXh0PjxyZWN0IGhlaWdodD0iMjIiIHdpZHRoPSIyMi4wODc2OTUxMjE3NjUxMzciIHk9IjE5OS42MDAwMDAzODE0Njk3MyIgeD0iMTE2LjQ0NTAxODc2ODMxMDU1IiBjbGFzcz0iZXIgYXR0cmlidXRlQm94T2RkIj48L3JlY3Q+PHRleHQgdHJhbnNmb3JtPSJ0cmFuc2xhdGUoMTIxLjQ0NTAxODc2ODMxMDU1LDIxMC42MDAwMDAzODE0Njk3MykiIHN0eWxlPSJkb21pbmFudC1iYXNlbGluZTogbWlkZGxlOyBmb250LXNpemU6IDEwLjJweDsiIHk9IjAiIHg9IjAiIGlkPSJ0ZXh0LWVudGl0eS1QUk9NT1RJT04tODFjNWRhMGQtZjM4OC01Y2JlLTgwZTMtYjEzYTU5NDg5MjU4LWF0dHItOS1rZXkiIGNsYXNzPSJlciBlbnRpdHlMYWJlbCI+PC90ZXh0PjxyZWN0IGhlaWdodD0iMjIiIHdpZHRoPSI0NS4wNjk0MzUxMTk2Mjg5MDYiIHk9IjE5OS42MDAwMDAzODE0Njk3MyIgeD0iMTM4LjUzMjcxMzg5MDA3NTY4IiBjbGFzcz0iZXIgYXR0cmlidXRlQm94T2RkIj48L3JlY3Q+PHRleHQgdHJhbnNmb3JtPSJ0cmFuc2xhdGUoMTQzLjUzMjcxMzg5MDA3NTY4LDIxMC42MDAwMDAzODE0Njk3MykiIHN0eWxlPSJkb21pbmFudC1iYXNlbGluZTogbWlkZGxlOyBmb250LXNpemU6IDEwLjJweDsiIHk9IjAiIHg9IjAiIGlkPSJ0ZXh0LWVudGl0eS1QUk9NT1RJT04tODFjNWRhMGQtZjM4OC01Y2JlLTgwZTMtYjEzYTU5NDg5MjU4LWF0dHItOS1jb21tZW50IiBjbGFzcz0iZXIgZW50aXR5TGFiZWwiPjwvdGV4dD48L2c+PGcgdHJhbnNmb3JtPSJ0cmFuc2xhdGUoMTAzLjM5Njg3MzQ3NDEyMTEsOTE5LjU5OTk5ODQ3NDEyMTEgKSIgaWQ9ImVudGl0eS1DQVRFR09SWS00NDk2Y2M5ZS1kYTFmLTU5OTQtYWIwNS04N2FhMzk1YTc3M2QiPjxyZWN0IGhlaWdodD0iNjcuNjAwMDAwMzgxNDY5NzMiIHdpZHRoPSIxNjguODIyMDcyMDI5MTEzNzciIHk9IjAiIHg9IjAiIGNsYXNzPSJlciBlbnRpdHlCb3giPjwvcmVjdD48dGV4dCB0cmFuc2Zvcm09InRyYW5zbGF0ZSg4NC40MTEwMzYwMTQ1NTY4OCwxMS44MDAwMDAxOTA3MzQ4NjMpIiBzdHlsZT0iZG9taW5hbnQtYmFzZWxpbmU6IG1pZGRsZTsgdGV4dC1hbmNob3I6IG1pZGRsZTsgZm9udC1zaXplOiAxMnB4OyIgeT0iMCIgeD0iMCIgaWQ9InRleHQtZW50aXR5LUNBVEVHT1JZLTQ0OTZjYzllLWRhMWYtNTk5NC1hYjA1LTg3YWEzOTVhNzczZCIgY2xhc3M9ImVyIGVudGl0eUxhYmVsIj5DQVRFR09SWTwvdGV4dD48cmVjdCBoZWlnaHQ9IjIyIiB3aWR0aD0iNTIuODk1MDE5NTMxMjUiIHk9IjIzLjYwMDAwMDM4MTQ2OTcyNyIgeD0iMCIgY2xhc3M9ImVyIGF0dHJpYnV0ZUJveE9kZCI+PC9yZWN0Pjx0ZXh0IHRyYW5zZm9ybT0idHJhbnNsYXRlKDUsMzQuNjAwMDAwMzgxNDY5NzMpIiBzdHlsZT0iZG9taW5hbnQtYmFzZWxpbmU6IG1pZGRsZTsgZm9udC1zaXplOiAxMC4ycHg7IiB5PSIwIiB4PSIwIiBpZD0idGV4dC1lbnRpdHktQ0FURUdPUlktNDQ5NmNjOWUtZGExZi01OTk0LWFiMDUtODdhYTM5NWE3NzNkLWF0dHItMS10eXBlIiBjbGFzcz0iZXIgZW50aXR5TGFiZWwiPlRJTllJTlQ8L3RleHQ+PHJlY3QgaGVpZ2h0PSIyMiIgd2lkdGg9IjM0Ljk5ODkyNjE2MjcxOTczIiB5PSIyMy42MDAwMDAzODE0Njk3MjciIHg9IjUyLjg5NTAxOTUzMTI1IiBjbGFzcz0iZXIgYXR0cmlidXRlQm94T2RkIj48L3JlY3Q+PHRleHQgdHJhbnNmb3JtPSJ0cmFuc2xhdGUoNTcuODk1MDE5NTMxMjUsMzQuNjAwMDAwMzgxNDY5NzMpIiBzdHlsZT0iZG9taW5hbnQtYmFzZWxpbmU6IG1pZGRsZTsgZm9udC1zaXplOiAxMC4ycHg7IiB5PSIwIiB4PSIwIiBpZD0idGV4dC1lbnRpdHktQ0FURUdPUlktNDQ5NmNjOWUtZGExZi01OTk0LWFiMDUtODdhYTM5NWE3NzNkLWF0dHItMS1uYW1lIiBjbGFzcz0iZXIgZW50aXR5TGFiZWwiPmlkPC90ZXh0PjxyZWN0IGhlaWdodD0iMjIiIHdpZHRoPSIyMi4wODc2OTUxMjE3NjUxMzciIHk9IjIzLjYwMDAwMDM4MTQ2OTcyNyIgeD0iODcuODkzOTQ1NjkzOTY5NzMiIGNsYXNzPSJlciBhdHRyaWJ1dGVCb3hPZGQiPjwvcmVjdD48dGV4dCB0cmFuc2Zvcm09InRyYW5zbGF0ZSg5Mi44OTM5NDU2OTM5Njk3MywzNC42MDAwMDAzODE0Njk3MykiIHN0eWxlPSJkb21pbmFudC1iYXNlbGluZTogbWlkZGxlOyBmb250LXNpemU6IDEwLjJweDsiIHk9IjAiIHg9IjAiIGlkPSJ0ZXh0LWVudGl0eS1DQVRFR09SWS00NDk2Y2M5ZS1kYTFmLTU5OTQtYWIwNS04N2FhMzk1YTc3M2QtYXR0ci0xLWtleSIgY2xhc3M9ImVyIGVudGl0eUxhYmVsIj5QSzwvdGV4dD48cmVjdCBoZWlnaHQ9IjIyIiB3aWR0aD0iNTguODQwNDMxMjEzMzc4OTA2IiB5PSIyMy42MDAwMDAzODE0Njk3MjciIHg9IjEwOS45ODE2NDA4MTU3MzQ4NiIgY2xhc3M9ImVyIGF0dHJpYnV0ZUJveE9kZCI+PC9yZWN0Pjx0ZXh0IHRyYW5zZm9ybT0idHJhbnNsYXRlKDExNC45ODE2NDA4MTU3MzQ4NiwzNC42MDAwMDAzODE0Njk3MykiIHN0eWxlPSJkb21pbmFudC1iYXNlbGluZTogbWlkZGxlOyBmb250LXNpemU6IDEwLjJweDsiIHk9IjAiIHg9IjAiIGlkPSJ0ZXh0LWVudGl0eS1DQVRFR09SWS00NDk2Y2M5ZS1kYTFmLTU5OTQtYWIwNS04N2FhMzk1YTc3M2QtYXR0ci0xLWNvbW1lbnQiIGNsYXNzPSJlciBlbnRpdHlMYWJlbCI+PC90ZXh0PjxyZWN0IGhlaWdodD0iMjIiIHdpZHRoPSI1Mi44OTUwMTk1MzEyNSIgeT0iNDUuNjAwMDAwMzgxNDY5NzMiIHg9IjAiIGNsYXNzPSJlciBhdHRyaWJ1dGVCb3hFdmVuIj48L3JlY3Q+PHRleHQgdHJhbnNmb3JtPSJ0cmFuc2xhdGUoNSw1Ni42MDAwMDAzODE0Njk3MykiIHN0eWxlPSJkb21pbmFudC1iYXNlbGluZTogbWlkZGxlOyBmb250LXNpemU6IDEwLjJweDsiIHk9IjAiIHg9IjAiIGlkPSJ0ZXh0LWVudGl0eS1DQVRFR09SWS00NDk2Y2M5ZS1kYTFmLTU5OTQtYWIwNS04N2FhMzk1YTc3M2QtYXR0ci0yLXR5cGUiIGNsYXNzPSJlciBlbnRpdHlMYWJlbCI+VkFSQ0hBUjwvdGV4dD48cmVjdCBoZWlnaHQ9IjIyIiB3aWR0aD0iMzQuOTk4OTI2MTYyNzE5NzMiIHk9IjQ1LjYwMDAwMDM4MTQ2OTczIiB4PSI1Mi44OTUwMTk1MzEyNSIgY2xhc3M9ImVyIGF0dHJpYnV0ZUJveEV2ZW4iPjwvcmVjdD48dGV4dCB0cmFuc2Zvcm09InRyYW5zbGF0ZSg1Ny44OTUwMTk1MzEyNSw1Ni42MDAwMDAzODE0Njk3MykiIHN0eWxlPSJkb21pbmFudC1iYXNlbGluZTogbWlkZGxlOyBmb250LXNpemU6IDEwLjJweDsiIHk9IjAiIHg9IjAiIGlkPSJ0ZXh0LWVudGl0eS1DQVRFR09SWS00NDk2Y2M5ZS1kYTFmLTU5OTQtYWIwNS04N2FhMzk1YTc3M2QtYXR0ci0yLW5hbWUiIGNsYXNzPSJlciBlbnRpdHlMYWJlbCI+bmFtZTwvdGV4dD48cmVjdCBoZWlnaHQ9IjIyIiB3aWR0aD0iMjIuMDg3Njk1MTIxNzY1MTM3IiB5PSI0NS42MDAwMDAzODE0Njk3MyIgeD0iODcuODkzOTQ1NjkzOTY5NzMiIGNsYXNzPSJlciBhdHRyaWJ1dGVCb3hFdmVuIj48L3JlY3Q+PHRleHQgdHJhbnNmb3JtPSJ0cmFuc2xhdGUoOTIuODkzOTQ1NjkzOTY5NzMsNTYuNjAwMDAwMzgxNDY5NzMpIiBzdHlsZT0iZG9taW5hbnQtYmFzZWxpbmU6IG1pZGRsZTsgZm9udC1zaXplOiAxMC4ycHg7IiB5PSIwIiB4PSIwIiBpZD0idGV4dC1lbnRpdHktQ0FURUdPUlktNDQ5NmNjOWUtZGExZi01OTk0LWFiMDUtODdhYTM5NWE3NzNkLWF0dHItMi1rZXkiIGNsYXNzPSJlciBlbnRpdHlMYWJlbCI+PC90ZXh0PjxyZWN0IGhlaWdodD0iMjIiIHdpZHRoPSI1OC44NDA0MzEyMTMzNzg5MDYiIHk9IjQ1LjYwMDAwMDM4MTQ2OTczIiB4PSIxMDkuOTgxNjQwODE1NzM0ODYiIGNsYXNzPSJlciBhdHRyaWJ1dGVCb3hFdmVuIj48L3JlY3Q+PHRleHQgdHJhbnNmb3JtPSJ0cmFuc2xhdGUoMTE0Ljk4MTY0MDgxNTczNDg2LDU2LjYwMDAwMDM4MTQ2OTczKSIgc3R5bGU9ImRvbWluYW50LWJhc2VsaW5lOiBtaWRkbGU7IGZvbnQtc2l6ZTogMTAuMnB4OyIgeT0iMCIgeD0iMCIgaWQ9InRleHQtZW50aXR5LUNBVEVHT1JZLTQ0OTZjYzllLWRhMWYtNTk5NC1hYjA1LTg3YWEzOTVhNzczZC1hdHRyLTItY29tbWVudCIgY2xhc3M9ImVyIGVudGl0eUxhYmVsIj41MCBVTklRVUU8L3RleHQ+PC9nPjxnIHRyYW5zZm9ybT0idHJhbnNsYXRlKDQ1OC40NTczNDQwNTUxNzU4LDY0MS45OTk5OTIzNzA2MDU1ICkiIGlkPSJlbnRpdHktUkFUSU5HLTEwM2I0NWMxLWFmZGItNWExNi05NGNmLWRlOWI5OTAwNTY0ZCI+PHJlY3QgaGVpZ2h0PSIxMzMuNjAwMDAwMzgxNDY5NzMiIHdpZHRoPSIxMzYuNjIwMjE1NDE1OTU0NiIgeT0iMCIgeD0iMCIgY2xhc3M9ImVyIGVudGl0eUJveCI+PC9yZWN0Pjx0ZXh0IHRyYW5zZm9ybT0idHJhbnNsYXRlKDY4LjMxMDEwNzcwNzk3NzMsMTEuODAwMDAwMTkwNzM0ODYzKSIgc3R5bGU9ImRvbWluYW50LWJhc2VsaW5lOiBtaWRkbGU7IHRleHQtYW5jaG9yOiBtaWRkbGU7IGZvbnQtc2l6ZTogMTJweDsiIHk9IjAiIHg9IjAiIGlkPSJ0ZXh0LWVudGl0eS1SQVRJTkctMTAzYjQ1YzEtYWZkYi01YTE2LTk0Y2YtZGU5Yjk5MDA1NjRkIiBjbGFzcz0iZXIgZW50aXR5TGFiZWwiPlJBVElORzwvdGV4dD48cmVjdCBoZWlnaHQ9IjIyIiB3aWR0aD0iNTIuODk1MDE5NTMxMjUiIHk9IjIzLjYwMDAwMDM4MTQ2OTcyNyIgeD0iMCIgY2xhc3M9ImVyIGF0dHJpYnV0ZUJveE9kZCI+PC9yZWN0Pjx0ZXh0IHRyYW5zZm9ybT0idHJhbnNsYXRlKDUsMzQuNjAwMDAwMzgxNDY5NzMpIiBzdHlsZT0iZG9taW5hbnQtYmFzZWxpbmU6IG1pZGRsZTsgZm9udC1zaXplOiAxMC4ycHg7IiB5PSIwIiB4PSIwIiBpZD0idGV4dC1lbnRpdHktUkFUSU5HLTEwM2I0NWMxLWFmZGItNWExNi05NGNmLWRlOWI5OTAwNTY0ZC1hdHRyLTEtdHlwZSIgY2xhc3M9ImVyIGVudGl0eUxhYmVsIj5JTlQ8L3RleHQ+PHJlY3QgaGVpZ2h0PSIyMiIgd2lkdGg9IjYxLjYzNzUwMDc2MjkzOTQ1IiB5PSIyMy42MDAwMDAzODE0Njk3MjciIHg9IjUyLjg5NTAxOTUzMTI1IiBjbGFzcz0iZXIgYXR0cmlidXRlQm94T2RkIj48L3JlY3Q+PHRleHQgdHJhbnNmb3JtPSJ0cmFuc2xhdGUoNTcuODk1MDE5NTMxMjUsMzQuNjAwMDAwMzgxNDY5NzMpIiBzdHlsZT0iZG9taW5hbnQtYmFzZWxpbmU6IG1pZGRsZTsgZm9udC1zaXplOiAxMC4ycHg7IiB5PSIwIiB4PSIwIiBpZD0idGV4dC1lbnRpdHktUkFUSU5HLTEwM2I0NWMxLWFmZGItNWExNi05NGNmLWRlOWI5OTAwNTY0ZC1hdHRyLTEtbmFtZSIgY2xhc3M9ImVyIGVudGl0eUxhYmVsIj5pZDwvdGV4dD48cmVjdCBoZWlnaHQ9IjIyIiB3aWR0aD0iMjIuMDg3Njk1MTIxNzY1MTM3IiB5PSIyMy42MDAwMDAzODE0Njk3MjciIHg9IjExNC41MzI1MjAyOTQxODk0NSIgY2xhc3M9ImVyIGF0dHJpYnV0ZUJveE9kZCI+PC9yZWN0Pjx0ZXh0IHRyYW5zZm9ybT0idHJhbnNsYXRlKDExOS41MzI1MjAyOTQxODk0NSwzNC42MDAwMDAzODE0Njk3MykiIHN0eWxlPSJkb21pbmFudC1iYXNlbGluZTogbWlkZGxlOyBmb250LXNpemU6IDEwLjJweDsiIHk9IjAiIHg9IjAiIGlkPSJ0ZXh0LWVudGl0eS1SQVRJTkctMTAzYjQ1YzEtYWZkYi01YTE2LTk0Y2YtZGU5Yjk5MDA1NjRkLWF0dHItMS1rZXkiIGNsYXNzPSJlciBlbnRpdHlMYWJlbCI+UEs8L3RleHQ+PHJlY3QgaGVpZ2h0PSIyMiIgd2lkdGg9IjUyLjg5NTAxOTUzMTI1IiB5PSI0NS42MDAwMDAzODE0Njk3MyIgeD0iMCIgY2xhc3M9ImVyIGF0dHJpYnV0ZUJveEV2ZW4iPjwvcmVjdD48dGV4dCB0cmFuc2Zvcm09InRyYW5zbGF0ZSg1LDU2LjYwMDAwMDM4MTQ2OTczKSIgc3R5bGU9ImRvbWluYW50LWJhc2VsaW5lOiBtaWRkbGU7IGZvbnQtc2l6ZTogMTAuMnB4OyIgeT0iMCIgeD0iMCIgaWQ9InRleHQtZW50aXR5LVJBVElORy0xMDNiNDVjMS1hZmRiLTVhMTYtOTRjZi1kZTliOTkwMDU2NGQtYXR0ci0yLXR5cGUiIGNsYXNzPSJlciBlbnRpdHlMYWJlbCI+SU5UPC90ZXh0PjxyZWN0IGhlaWdodD0iMjIiIHdpZHRoPSI2MS42Mzc1MDA3NjI5Mzk0NSIgeT0iNDUuNjAwMDAwMzgxNDY5NzMiIHg9IjUyLjg5NTAxOTUzMTI1IiBjbGFzcz0iZXIgYXR0cmlidXRlQm94RXZlbiI+PC9yZWN0Pjx0ZXh0IHRyYW5zZm9ybT0idHJhbnNsYXRlKDU3Ljg5NTAxOTUzMTI1LDU2LjYwMDAwMDM4MTQ2OTczKSIgc3R5bGU9ImRvbWluYW50LWJhc2VsaW5lOiBtaWRkbGU7IGZvbnQtc2l6ZTogMTAuMnB4OyIgeT0iMCIgeD0iMCIgaWQ9InRleHQtZW50aXR5LVJBVElORy0xMDNiNDVjMS1hZmRiLTVhMTYtOTRjZi1kZTliOTkwMDU2NGQtYXR0ci0yLW5hbWUiIGNsYXNzPSJlciBlbnRpdHlMYWJlbCI+dXNlcl9pZDwvdGV4dD48cmVjdCBoZWlnaHQ9IjIyIiB3aWR0aD0iMjIuMDg3Njk1MTIxNzY1MTM3IiB5PSI0NS42MDAwMDAzODE0Njk3MyIgeD0iMTE0LjUzMjUyMDI5NDE4OTQ1IiBjbGFzcz0iZXIgYXR0cmlidXRlQm94RXZlbiI+PC9yZWN0Pjx0ZXh0IHRyYW5zZm9ybT0idHJhbnNsYXRlKDExOS41MzI1MjAyOTQxODk0NSw1Ni42MDAwMDAzODE0Njk3MykiIHN0eWxlPSJkb21pbmFudC1iYXNlbGluZTogbWlkZGxlOyBmb250LXNpemU6IDEwLjJweDsiIHk9IjAiIHg9IjAiIGlkPSJ0ZXh0LWVudGl0eS1SQVRJTkctMTAzYjQ1YzEtYWZkYi01YTE2LTk0Y2YtZGU5Yjk5MDA1NjRkLWF0dHItMi1rZXkiIGNsYXNzPSJlciBlbnRpdHlMYWJlbCI+Rks8L3RleHQ+PHJlY3QgaGVpZ2h0PSIyMiIgd2lkdGg9IjUyLjg5NTAxOTUzMTI1IiB5PSI2Ny42MDAwMDAzODE0Njk3MyIgeD0iMCIgY2xhc3M9ImVyIGF0dHJpYnV0ZUJveE9kZCI+PC9yZWN0Pjx0ZXh0IHRyYW5zZm9ybT0idHJhbnNsYXRlKDUsNzguNjAwMDAwMzgxNDY5NzMpIiBzdHlsZT0iZG9taW5hbnQtYmFzZWxpbmU6IG1pZGRsZTsgZm9udC1zaXplOiAxMC4ycHg7IiB5PSIwIiB4PSIwIiBpZD0idGV4dC1lbnRpdHktUkFUSU5HLTEwM2I0NWMxLWFmZGItNWExNi05NGNmLWRlOWI5OTAwNTY0ZC1hdHRyLTMtdHlwZSIgY2xhc3M9ImVyIGVudGl0eUxhYmVsIj5JTlQ8L3RleHQ+PHJlY3QgaGVpZ2h0PSIyMiIgd2lkdGg9IjYxLjYzNzUwMDc2MjkzOTQ1IiB5PSI2Ny42MDAwMDAzODE0Njk3MyIgeD0iNTIuODk1MDE5NTMxMjUiIGNsYXNzPSJlciBhdHRyaWJ1dGVCb3hPZGQiPjwvcmVjdD48dGV4dCB0cmFuc2Zvcm09InRyYW5zbGF0ZSg1Ny44OTUwMTk1MzEyNSw3OC42MDAwMDAzODE0Njk3MykiIHN0eWxlPSJkb21pbmFudC1iYXNlbGluZTogbWlkZGxlOyBmb250LXNpemU6IDEwLjJweDsiIHk9IjAiIHg9IjAiIGlkPSJ0ZXh0LWVudGl0eS1SQVRJTkctMTAzYjQ1YzEtYWZkYi01YTE2LTk0Y2YtZGU5Yjk5MDA1NjRkLWF0dHItMy1uYW1lIiBjbGFzcz0iZXIgZW50aXR5TGFiZWwiPmJ1c2luZXNzX2lkPC90ZXh0PjxyZWN0IGhlaWdodD0iMjIiIHdpZHRoPSIyMi4wODc2OTUxMjE3NjUxMzciIHk9IjY3LjYwMDAwMDM4MTQ2OTczIiB4PSIxMTQuNTMyNTIwMjk0MTg5NDUiIGNsYXNzPSJlciBhdHRyaWJ1dGVCb3hPZGQiPjwvcmVjdD48dGV4dCB0cmFuc2Zvcm09InRyYW5zbGF0ZSgxMTkuNTMyNTIwMjk0MTg5NDUsNzguNjAwMDAwMzgxNDY5NzMpIiBzdHlsZT0iZG9taW5hbnQtYmFzZWxpbmU6IG1pZGRsZTsgZm9udC1zaXplOiAxMC4ycHg7IiB5PSIwIiB4PSIwIiBpZD0idGV4dC1lbnRpdHktUkFUSU5HLTEwM2I0NWMxLWFmZGItNWExNi05NGNmLWRlOWI5OTAwNTY0ZC1hdHRyLTMta2V5IiBjbGFzcz0iZXIgZW50aXR5TGFiZWwiPkZLPC90ZXh0PjxyZWN0IGhlaWdodD0iMjIiIHdpZHRoPSI1Mi44OTUwMTk1MzEyNSIgeT0iODkuNjAwMDAwMzgxNDY5NzMiIHg9IjAiIGNsYXNzPSJlciBhdHRyaWJ1dGVCb3hFdmVuIj48L3JlY3Q+PHRleHQgdHJhbnNmb3JtPSJ0cmFuc2xhdGUoNSwxMDAuNjAwMDAwMzgxNDY5NzMpIiBzdHlsZT0iZG9taW5hbnQtYmFzZWxpbmU6IG1pZGRsZTsgZm9udC1zaXplOiAxMC4ycHg7IiB5PSIwIiB4PSIwIiBpZD0idGV4dC1lbnRpdHktUkFUSU5HLTEwM2I0NWMxLWFmZGItNWExNi05NGNmLWRlOWI5OTAwNTY0ZC1hdHRyLTQtdHlwZSIgY2xhc3M9ImVyIGVudGl0eUxhYmVsIj5USU5ZSU5UPC90ZXh0PjxyZWN0IGhlaWdodD0iMjIiIHdpZHRoPSI2MS42Mzc1MDA3NjI5Mzk0NSIgeT0iODkuNjAwMDAwMzgxNDY5NzMiIHg9IjUyLjg5NTAxOTUzMTI1IiBjbGFzcz0iZXIgYXR0cmlidXRlQm94RXZlbiI+PC9yZWN0Pjx0ZXh0IHRyYW5zZm9ybT0idHJhbnNsYXRlKDU3Ljg5NTAxOTUzMTI1LDEwMC42MDAwMDAzODE0Njk3MykiIHN0eWxlPSJkb21pbmFudC1iYXNlbGluZTogbWlkZGxlOyBmb250LXNpemU6IDEwLjJweDsiIHk9IjAiIHg9IjAiIGlkPSJ0ZXh0LWVudGl0eS1SQVRJTkctMTAzYjQ1YzEtYWZkYi01YTE2LTk0Y2YtZGU5Yjk5MDA1NjRkLWF0dHItNC1uYW1lIiBjbGFzcz0iZXIgZW50aXR5TGFiZWwiPnN0YXJzPC90ZXh0PjxyZWN0IGhlaWdodD0iMjIiIHdpZHRoPSIyMi4wODc2OTUxMjE3NjUxMzciIHk9Ijg5LjYwMDAwMDM4MTQ2OTczIiB4PSIxMTQuNTMyNTIwMjk0MTg5NDUiIGNsYXNzPSJlciBhdHRyaWJ1dGVCb3hFdmVuIj48L3JlY3Q+PHRleHQgdHJhbnNmb3JtPSJ0cmFuc2xhdGUoMTE5LjUzMjUyMDI5NDE4OTQ1LDEwMC42MDAwMDAzODE0Njk3MykiIHN0eWxlPSJkb21pbmFudC1iYXNlbGluZTogbWlkZGxlOyBmb250LXNpemU6IDEwLjJweDsiIHk9IjAiIHg9IjAiIGlkPSJ0ZXh0LWVudGl0eS1SQVRJTkctMTAzYjQ1YzEtYWZkYi01YTE2LTk0Y2YtZGU5Yjk5MDA1NjRkLWF0dHItNC1rZXkiIGNsYXNzPSJlciBlbnRpdHlMYWJlbCI+PC90ZXh0PjxyZWN0IGhlaWdodD0iMjIiIHdpZHRoPSI1Mi44OTUwMTk1MzEyNSIgeT0iMTExLjYwMDAwMDM4MTQ2OTczIiB4PSIwIiBjbGFzcz0iZXIgYXR0cmlidXRlQm94T2RkIj48L3JlY3Q+PHRleHQgdHJhbnNmb3JtPSJ0cmFuc2xhdGUoNSwxMjIuNjAwMDAwMzgxNDY5NzMpIiBzdHlsZT0iZG9taW5hbnQtYmFzZWxpbmU6IG1pZGRsZTsgZm9udC1zaXplOiAxMC4ycHg7IiB5PSIwIiB4PSIwIiBpZD0idGV4dC1lbnRpdHktUkFUSU5HLTEwM2I0NWMxLWFmZGItNWExNi05NGNmLWRlOWI5OTAwNTY0ZC1hdHRyLTUtdHlwZSIgY2xhc3M9ImVyIGVudGl0eUxhYmVsIj5WQVJDSEFSPC90ZXh0PjxyZWN0IGhlaWdodD0iMjIiIHdpZHRoPSI2MS42Mzc1MDA3NjI5Mzk0NSIgeT0iMTExLjYwMDAwMDM4MTQ2OTczIiB4PSI1Mi44OTUwMTk1MzEyNSIgY2xhc3M9ImVyIGF0dHJpYnV0ZUJveE9kZCI+PC9yZWN0Pjx0ZXh0IHRyYW5zZm9ybT0idHJhbnNsYXRlKDU3Ljg5NTAxOTUzMTI1LDEyMi42MDAwMDAzODE0Njk3MykiIHN0eWxlPSJkb21pbmFudC1iYXNlbGluZTogbWlkZGxlOyBmb250LXNpemU6IDEwLjJweDsiIHk9IjAiIHg9IjAiIGlkPSJ0ZXh0LWVudGl0eS1SQVRJTkctMTAzYjQ1YzEtYWZkYi01YTE2LTk0Y2YtZGU5Yjk5MDA1NjRkLWF0dHItNS1uYW1lIiBjbGFzcz0iZXIgZW50aXR5TGFiZWwiPmNvbW1lbnQ8L3RleHQ+PHJlY3QgaGVpZ2h0PSIyMiIgd2lkdGg9IjIyLjA4NzY5NTEyMTc2NTEzNyIgeT0iMTExLjYwMDAwMDM4MTQ2OTczIiB4PSIxMTQuNTMyNTIwMjk0MTg5NDUiIGNsYXNzPSJlciBhdHRyaWJ1dGVCb3hPZGQiPjwvcmVjdD48dGV4dCB0cmFuc2Zvcm09InRyYW5zbGF0ZSgxMTkuNTMyNTIwMjk0MTg5NDUsMTIyLjYwMDAwMDM4MTQ2OTczKSIgc3R5bGU9ImRvbWluYW50LWJhc2VsaW5lOiBtaWRkbGU7IGZvbnQtc2l6ZTogMTAuMnB4OyIgeT0iMCIgeD0iMCIgaWQ9InRleHQtZW50aXR5LVJBVElORy0xMDNiNDVjMS1hZmRiLTVhMTYtOTRjZi1kZTliOTkwMDU2NGQtYXR0ci01LWtleSIgY2xhc3M9ImVyIGVudGl0eUxhYmVsIj48L3RleHQ+PC9nPjxnIHRyYW5zZm9ybT0idHJhbnNsYXRlKDY5NS4wNzc1NTI3OTU0MTAyLDY3NC45OTk5OTYxODUzMDI3ICkiIGlkPSJlbnRpdHktQlVTSU5FU1NUWVBFLTQzNmRjMDc3LTY3OGYtNTJhYS04YjFkLTAyNjg3MmI4YTMxMCI+PHJlY3QgaGVpZ2h0PSI2Ny42MDAwMDAzODE0Njk3MyIgd2lkdGg9IjEyNC40NDQ4MjUxNzI0MjQzMiIgeT0iMCIgeD0iMCIgY2xhc3M9ImVyIGVudGl0eUJveCI+PC9yZWN0Pjx0ZXh0IHRyYW5zZm9ybT0idHJhbnNsYXRlKDYyLjIyMjQxMjU4NjIxMjE2LDExLjgwMDAwMDE5MDczNDg2MykiIHN0eWxlPSJkb21pbmFudC1iYXNlbGluZTogbWlkZGxlOyB0ZXh0LWFuY2hvcjogbWlkZGxlOyBmb250LXNpemU6IDEycHg7IiB5PSIwIiB4PSIwIiBpZD0idGV4dC1lbnRpdHktQlVTSU5FU1NUWVBFLTQzNmRjMDc3LTY3OGYtNTJhYS04YjFkLTAyNjg3MmI4YTMxMCIgY2xhc3M9ImVyIGVudGl0eUxhYmVsIj5CVVNJTkVTU19UWVBFPC90ZXh0PjxyZWN0IGhlaWdodD0iMjIiIHdpZHRoPSIyNS43NDgzMzk2NTMwMTUxMzciIHk9IjIzLjYwMDAwMDM4MTQ2OTcyNyIgeD0iMCIgY2xhc3M9ImVyIGF0dHJpYnV0ZUJveE9kZCI+PC9yZWN0Pjx0ZXh0IHRyYW5zZm9ybT0idHJhbnNsYXRlKDUsMzQuNjAwMDAwMzgxNDY5NzMpIiBzdHlsZT0iZG9taW5hbnQtYmFzZWxpbmU6IG1pZGRsZTsgZm9udC1zaXplOiAxMC4ycHg7IiB5PSIwIiB4PSIwIiBpZD0idGV4dC1lbnRpdHktQlVTSU5FU1NUWVBFLTQzNmRjMDc3LTY3OGYtNTJhYS04YjFkLTAyNjg3MmI4YTMxMC1hdHRyLTEtdHlwZSIgY2xhc3M9ImVyIGVudGl0eUxhYmVsIj5JTlQ8L3RleHQ+PHJlY3QgaGVpZ2h0PSIyMiIgd2lkdGg9IjYxLjYzNzUwMDc2MjkzOTQ1IiB5PSIyMy42MDAwMDAzODE0Njk3MjciIHg9IjI1Ljc0ODMzOTY1MzAxNTEzNyIgY2xhc3M9ImVyIGF0dHJpYnV0ZUJveE9kZCI+PC9yZWN0Pjx0ZXh0IHRyYW5zZm9ybT0idHJhbnNsYXRlKDMwLjc0ODMzOTY1MzAxNTEzNywzNC42MDAwMDAzODE0Njk3MykiIHN0eWxlPSJkb21pbmFudC1iYXNlbGluZTogbWlkZGxlOyBmb250LXNpemU6IDEwLjJweDsiIHk9IjAiIHg9IjAiIGlkPSJ0ZXh0LWVudGl0eS1CVVNJTkVTU1RZUEUtNDM2ZGMwNzctNjc4Zi01MmFhLThiMWQtMDI2ODcyYjhhMzEwLWF0dHItMS1uYW1lIiBjbGFzcz0iZXIgZW50aXR5TGFiZWwiPmJ1c2luZXNzX2lkPC90ZXh0PjxyZWN0IGhlaWdodD0iMjIiIHdpZHRoPSIzNy4wNTg5ODQ3NTY0Njk3MyIgeT0iMjMuNjAwMDAwMzgxNDY5NzI3IiB4PSI4Ny4zODU4NDA0MTU5NTQ1OSIgY2xhc3M9ImVyIGF0dHJpYnV0ZUJveE9kZCI+PC9yZWN0Pjx0ZXh0IHRyYW5zZm9ybT0idHJhbnNsYXRlKDkyLjM4NTg0MDQxNTk1NDU5LDM0LjYwMDAwMDM4MTQ2OTczKSIgc3R5bGU9ImRvbWluYW50LWJhc2VsaW5lOiBtaWRkbGU7IGZvbnQtc2l6ZTogMTAuMnB4OyIgeT0iMCIgeD0iMCIgaWQ9InRleHQtZW50aXR5LUJVU0lORVNTVFlQRS00MzZkYzA3Ny02NzhmLTUyYWEtOGIxZC0wMjY4NzJiOGEzMTAtYXR0ci0xLWtleSIgY2xhc3M9ImVyIGVudGl0eUxhYmVsIj5QSyxGSzwvdGV4dD48cmVjdCBoZWlnaHQ9IjIyIiB3aWR0aD0iMjUuNzQ4MzM5NjUzMDE1MTM3IiB5PSI0NS42MDAwMDAzODE0Njk3MyIgeD0iMCIgY2xhc3M9ImVyIGF0dHJpYnV0ZUJveEV2ZW4iPjwvcmVjdD48dGV4dCB0cmFuc2Zvcm09InRyYW5zbGF0ZSg1LDU2LjYwMDAwMDM4MTQ2OTczKSIgc3R5bGU9ImRvbWluYW50LWJhc2VsaW5lOiBtaWRkbGU7IGZvbnQtc2l6ZTogMTAuMnB4OyIgeT0iMCIgeD0iMCIgaWQ9InRleHQtZW50aXR5LUJVU0lORVNTVFlQRS00MzZkYzA3Ny02NzhmLTUyYWEtOGIxZC0wMjY4NzJiOGEzMTAtYXR0ci0yLXR5cGUiIGNsYXNzPSJlciBlbnRpdHlMYWJlbCI+SU5UPC90ZXh0PjxyZWN0IGhlaWdodD0iMjIiIHdpZHRoPSI2MS42Mzc1MDA3NjI5Mzk0NSIgeT0iNDUuNjAwMDAwMzgxNDY5NzMiIHg9IjI1Ljc0ODMzOTY1MzAxNTEzNyIgY2xhc3M9ImVyIGF0dHJpYnV0ZUJveEV2ZW4iPjwvcmVjdD48dGV4dCB0cmFuc2Zvcm09InRyYW5zbGF0ZSgzMC43NDgzMzk2NTMwMTUxMzcsNTYuNjAwMDAwMzgxNDY5NzMpIiBzdHlsZT0iZG9taW5hbnQtYmFzZWxpbmU6IG1pZGRsZTsgZm9udC1zaXplOiAxMC4ycHg7IiB5PSIwIiB4PSIwIiBpZD0idGV4dC1lbnRpdHktQlVTSU5FU1NUWVBFLTQzNmRjMDc3LTY3OGYtNTJhYS04YjFkLTAyNjg3MmI4YTMxMC1hdHRyLTItbmFtZSIgY2xhc3M9ImVyIGVudGl0eUxhYmVsIj50eXBlX2lkPC90ZXh0PjxyZWN0IGhlaWdodD0iMjIiIHdpZHRoPSIzNy4wNTg5ODQ3NTY0Njk3MyIgeT0iNDUuNjAwMDAwMzgxNDY5NzMiIHg9Ijg3LjM4NTg0MDQxNTk1NDU5IiBjbGFzcz0iZXIgYXR0cmlidXRlQm94RXZlbiI+PC9yZWN0Pjx0ZXh0IHRyYW5zZm9ybT0idHJhbnNsYXRlKDkyLjM4NTg0MDQxNTk1NDU5LDU2LjYwMDAwMDM4MTQ2OTczKSIgc3R5bGU9ImRvbWluYW50LWJhc2VsaW5lOiBtaWRkbGU7IGZvbnQtc2l6ZTogMTAuMnB4OyIgeT0iMCIgeD0iMCIgaWQ9InRleHQtZW50aXR5LUJVU0lORVNTVFlQRS00MzZkYzA3Ny02NzhmLTUyYWEtOGIxZC0wMjY4NzJiOGEzMTAtYXR0ci0yLWtleSIgY2xhc3M9ImVyIGVudGl0eUxhYmVsIj5QSyxGSzwvdGV4dD48L2c+PGcgdHJhbnNmb3JtPSJ0cmFuc2xhdGUoNjcyLjg4ODkzMTI3NDQxNDEsOTE5LjU5OTk5ODQ3NDEyMTEgKSIgaWQ9ImVudGl0eS1UWVBFLWMxZDZmMGJhLTk5ZTItNWYwZS05MjQ2LWQ5OWVhZWI5ODI4MyI+PHJlY3QgaGVpZ2h0PSI2Ny42MDAwMDAzODE0Njk3MyIgd2lkdGg9IjE2OC44MjIwNzIwMjkxMTM3NyIgeT0iMCIgeD0iMCIgY2xhc3M9ImVyIGVudGl0eUJveCI+PC9yZWN0Pjx0ZXh0IHRyYW5zZm9ybT0idHJhbnNsYXRlKDg0LjQxMTAzNjAxNDU1Njg4LDExLjgwMDAwMDE5MDczNDg2MykiIHN0eWxlPSJkb21pbmFudC1iYXNlbGluZTogbWlkZGxlOyB0ZXh0LWFuY2hvcjogbWlkZGxlOyBmb250LXNpemU6IDEycHg7IiB5PSIwIiB4PSIwIiBpZD0idGV4dC1lbnRpdHktVFlQRS1jMWQ2ZjBiYS05OWUyLTVmMGUtOTI0Ni1kOTllYWViOTgyODMiIGNsYXNzPSJlciBlbnRpdHlMYWJlbCI+VFlQRTwvdGV4dD48cmVjdCBoZWlnaHQ9IjIyIiB3aWR0aD0iNTIuODk1MDE5NTMxMjUiIHk9IjIzLjYwMDAwMDM4MTQ2OTcyNyIgeD0iMCIgY2xhc3M9ImVyIGF0dHJpYnV0ZUJveE9kZCI+PC9yZWN0Pjx0ZXh0IHRyYW5zZm9ybT0idHJhbnNsYXRlKDUsMzQuNjAwMDAwMzgxNDY5NzMpIiBzdHlsZT0iZG9taW5hbnQtYmFzZWxpbmU6IG1pZGRsZTsgZm9udC1zaXplOiAxMC4ycHg7IiB5PSIwIiB4PSIwIiBpZD0idGV4dC1lbnRpdHktVFlQRS1jMWQ2ZjBiYS05OWUyLTVmMGUtOTI0Ni1kOTllYWViOTgyODMtYXR0ci0xLXR5cGUiIGNsYXNzPSJlciBlbnRpdHlMYWJlbCI+VElOWUlOVDwvdGV4dD48cmVjdCBoZWlnaHQ9IjIyIiB3aWR0aD0iMzQuOTk4OTI2MTYyNzE5NzMiIHk9IjIzLjYwMDAwMDM4MTQ2OTcyNyIgeD0iNTIuODk1MDE5NTMxMjUiIGNsYXNzPSJlciBhdHRyaWJ1dGVCb3hPZGQiPjwvcmVjdD48dGV4dCB0cmFuc2Zvcm09InRyYW5zbGF0ZSg1Ny44OTUwMTk1MzEyNSwzNC42MDAwMDAzODE0Njk3MykiIHN0eWxlPSJkb21pbmFudC1iYXNlbGluZTogbWlkZGxlOyBmb250LXNpemU6IDEwLjJweDsiIHk9IjAiIHg9IjAiIGlkPSJ0ZXh0LWVudGl0eS1UWVBFLWMxZDZmMGJhLTk5ZTItNWYwZS05MjQ2LWQ5OWVhZWI5ODI4My1hdHRyLTEtbmFtZSIgY2xhc3M9ImVyIGVudGl0eUxhYmVsIj5pZDwvdGV4dD48cmVjdCBoZWlnaHQ9IjIyIiB3aWR0aD0iMjIuMDg3Njk1MTIxNzY1MTM3IiB5PSIyMy42MDAwMDAzODE0Njk3MjciIHg9Ijg3Ljg5Mzk0NTY5Mzk2OTczIiBjbGFzcz0iZXIgYXR0cmlidXRlQm94T2RkIj48L3JlY3Q+PHRleHQgdHJhbnNmb3JtPSJ0cmFuc2xhdGUoOTIuODkzOTQ1NjkzOTY5NzMsMzQuNjAwMDAwMzgxNDY5NzMpIiBzdHlsZT0iZG9taW5hbnQtYmFzZWxpbmU6IG1pZGRsZTsgZm9udC1zaXplOiAxMC4ycHg7IiB5PSIwIiB4PSIwIiBpZD0idGV4dC1lbnRpdHktVFlQRS1jMWQ2ZjBiYS05OWUyLTVmMGUtOTI0Ni1kOTllYWViOTgyODMtYXR0ci0xLWtleSIgY2xhc3M9ImVyIGVudGl0eUxhYmVsIj5QSzwvdGV4dD48cmVjdCBoZWlnaHQ9IjIyIiB3aWR0aD0iNTguODQwNDMxMjEzMzc4OTA2IiB5PSIyMy42MDAwMDAzODE0Njk3MjciIHg9IjEwOS45ODE2NDA4MTU3MzQ4NiIgY2xhc3M9ImVyIGF0dHJpYnV0ZUJveE9kZCI+PC9yZWN0Pjx0ZXh0IHRyYW5zZm9ybT0idHJhbnNsYXRlKDExNC45ODE2NDA4MTU3MzQ4NiwzNC42MDAwMDAzODE0Njk3MykiIHN0eWxlPSJkb21pbmFudC1iYXNlbGluZTogbWlkZGxlOyBmb250LXNpemU6IDEwLjJweDsiIHk9IjAiIHg9IjAiIGlkPSJ0ZXh0LWVudGl0eS1UWVBFLWMxZDZmMGJhLTk5ZTItNWYwZS05MjQ2LWQ5OWVhZWI5ODI4My1hdHRyLTEtY29tbWVudCIgY2xhc3M9ImVyIGVudGl0eUxhYmVsIj48L3RleHQ+PHJlY3QgaGVpZ2h0PSIyMiIgd2lkdGg9IjUyLjg5NTAxOTUzMTI1IiB5PSI0NS42MDAwMDAzODE0Njk3MyIgeD0iMCIgY2xhc3M9ImVyIGF0dHJpYnV0ZUJveEV2ZW4iPjwvcmVjdD48dGV4dCB0cmFuc2Zvcm09InRyYW5zbGF0ZSg1LDU2LjYwMDAwMDM4MTQ2OTczKSIgc3R5bGU9ImRvbWluYW50LWJhc2VsaW5lOiBtaWRkbGU7IGZvbnQtc2l6ZTogMTAuMnB4OyIgeT0iMCIgeD0iMCIgaWQ9InRleHQtZW50aXR5LVRZUEUtYzFkNmYwYmEtOTllMi01ZjBlLTkyNDYtZDk5ZWFlYjk4MjgzLWF0dHItMi10eXBlIiBjbGFzcz0iZXIgZW50aXR5TGFiZWwiPlZBUkNIQVI8L3RleHQ+PHJlY3QgaGVpZ2h0PSIyMiIgd2lkdGg9IjM0Ljk5ODkyNjE2MjcxOTczIiB5PSI0NS42MDAwMDAzODE0Njk3MyIgeD0iNTIuODk1MDE5NTMxMjUiIGNsYXNzPSJlciBhdHRyaWJ1dGVCb3hFdmVuIj48L3JlY3Q+PHRleHQgdHJhbnNmb3JtPSJ0cmFuc2xhdGUoNTcuODk1MDE5NTMxMjUsNTYuNjAwMDAwMzgxNDY5NzMpIiBzdHlsZT0iZG9taW5hbnQtYmFzZWxpbmU6IG1pZGRsZTsgZm9udC1zaXplOiAxMC4ycHg7IiB5PSIwIiB4PSIwIiBpZD0idGV4dC1lbnRpdHktVFlQRS1jMWQ2ZjBiYS05OWUyLTVmMGUtOTI0Ni1kOTllYWViOTgyODMtYXR0ci0yLW5hbWUiIGNsYXNzPSJlciBlbnRpdHlMYWJlbCI+bmFtZTwvdGV4dD48cmVjdCBoZWlnaHQ9IjIyIiB3aWR0aD0iMjIuMDg3Njk1MTIxNzY1MTM3IiB5PSI0NS42MDAwMDAzODE0Njk3MyIgeD0iODcuODkzOTQ1NjkzOTY5NzMiIGNsYXNzPSJlciBhdHRyaWJ1dGVCb3hFdmVuIj48L3JlY3Q+PHRleHQgdHJhbnNmb3JtPSJ0cmFuc2xhdGUoOTIuODkzOTQ1NjkzOTY5NzMsNTYuNjAwMDAwMzgxNDY5NzMpIiBzdHlsZT0iZG9taW5hbnQtYmFzZWxpbmU6IG1pZGRsZTsgZm9udC1zaXplOiAxMC4ycHg7IiB5PSIwIiB4PSIwIiBpZD0idGV4dC1lbnRpdHktVFlQRS1jMWQ2ZjBiYS05OWUyLTVmMGUtOTI0Ni1kOTllYWViOTgyODMtYXR0ci0yLWtleSIgY2xhc3M9ImVyIGVudGl0eUxhYmVsIj48L3RleHQ+PHJlY3QgaGVpZ2h0PSIyMiIgd2lkdGg9IjU4Ljg0MDQzMTIxMzM3ODkwNiIgeT0iNDUuNjAwMDAwMzgxNDY5NzMiIHg9IjEwOS45ODE2NDA4MTU3MzQ4NiIgY2xhc3M9ImVyIGF0dHJpYnV0ZUJveEV2ZW4iPjwvcmVjdD48dGV4dCB0cmFuc2Zvcm09InRyYW5zbGF0ZSgxMTQuOTgxNjQwODE1NzM0ODYsNTYuNjAwMDAwMzgxNDY5NzMpIiBzdHlsZT0iZG9taW5hbnQtYmFzZWxpbmU6IG1pZGRsZTsgZm9udC1zaXplOiAxMC4ycHg7IiB5PSIwIiB4PSIwIiBpZD0idGV4dC1lbnRpdHktVFlQRS1jMWQ2ZjBiYS05OWUyLTVmMGUtOTI0Ni1kOTllYWViOTgyODMtYXR0ci0yLWNvbW1lbnQiIGNsYXNzPSJlciBlbnRpdHlMYWJlbCI+NTAgVU5JUVVFPC90ZXh0PjwvZz48cmVjdCBoZWlnaHQ9IjAiIHdpZHRoPSIwIiB5PSIxNTMuOTgyNzQyMzA5NTcwMyIgeD0iMzE4LjQzNTU3NzM5MjU3ODEiIGNsYXNzPSJlciByZWxhdGlvbnNoaXBMYWJlbEJveCI+PC9yZWN0Pjx0ZXh0IHN0eWxlPSJ0ZXh0LWFuY2hvcjogbWlkZGxlOyBkb21pbmFudC1iYXNlbGluZTogbWlkZGxlOyBmb250LXNpemU6IDEycHg7IiB5PSIxNTMuOTgyNzQyMzA5NTcwMyIgeD0iMzE4LjQzNTU3NzM5MjU3ODEiIGlkPSJyZWwxIiBjbGFzcz0iZXIgcmVsYXRpb25zaGlwTGFiZWwiPjwvdGV4dD48cmVjdCBoZWlnaHQ9IjAiIHdpZHRoPSIwIiB5PSI1NDcuMzk0NTkyMjg1MTU2MiIgeD0iMTkwLjE2NTkyNDA3MjI2NTYyIiBjbGFzcz0iZXIgcmVsYXRpb25zaGlwTGFiZWxCb3giPjwvcmVjdD48dGV4dCBzdHlsZT0idGV4dC1hbmNob3I6IG1pZGRsZTsgZG9taW5hbnQtYmFzZWxpbmU6IG1pZGRsZTsgZm9udC1zaXplOiAxMnB4OyIgeT0iNTQ3LjM5NDU5MjI4NTE1NjIiIHg9IjE5MC4xNjU5MjQwNzIyNjU2MiIgaWQ9InJlbDIiIGNsYXNzPSJlciByZWxhdGlvbnNoaXBMYWJlbCI+PC90ZXh0PjxyZWN0IGhlaWdodD0iMCIgd2lkdGg9IjAiIHk9Ijg2OS41OTk5NzU1ODU5Mzc1IiB4PSIxODcuODA3OTk4NjU3MjI2NTYiIGNsYXNzPSJlciByZWxhdGlvbnNoaXBMYWJlbEJveCI+PC9yZWN0Pjx0ZXh0IHN0eWxlPSJ0ZXh0LWFuY2hvcjogbWlkZGxlOyBkb21pbmFudC1iYXNlbGluZTogbWlkZGxlOyBmb250LXNpemU6IDEycHg7IiB5PSI4NjkuNTk5OTc1NTg1OTM3NSIgeD0iMTg3LjgwNzk5ODY1NzIyNjU2IiBpZD0icmVsMyIgY2xhc3M9ImVyIHJlbGF0aW9uc2hpcExhYmVsIj48L3RleHQ+PHJlY3QgaGVpZ2h0PSIwIiB3aWR0aD0iMCIgeT0iNTcyLjc1OTgyNjY2MDE1NjIiIHg9IjM5My4zOTI1NzgxMjUiIGNsYXNzPSJlciByZWxhdGlvbnNoaXBMYWJlbEJveCI+PC9yZWN0Pjx0ZXh0IHN0eWxlPSJ0ZXh0LWFuY2hvcjogbWlkZGxlOyBkb21pbmFudC1iYXNlbGluZTogbWlkZGxlOyBmb250LXNpemU6IDEycHg7IiB5PSI1NzIuNzU5ODI2NjYwMTU2MiIgeD0iMzkzLjM5MjU3ODEyNSIgaWQ9InJlbDQiIGNsYXNzPSJlciByZWxhdGlvbnNoaXBMYWJlbCI+PC90ZXh0PjxyZWN0IGhlaWdodD0iMCIgd2lkdGg9IjAiIHk9IjM4Ni42Nzc5MTc0ODA0Njg3NSIgeD0iNTkyLjAyMjUyMTk3MjY1NjIiIGNsYXNzPSJlciByZWxhdGlvbnNoaXBMYWJlbEJveCI+PC9yZWN0Pjx0ZXh0IHN0eWxlPSJ0ZXh0LWFuY2hvcjogbWlkZGxlOyBkb21pbmFudC1iYXNlbGluZTogbWlkZGxlOyBmb250LXNpemU6IDEycHg7IiB5PSIzODYuNjc3OTE3NDgwNDY4NzUiIHg9IjU5Mi4wMjI1MjE5NzI2NTYyIiBpZD0icmVsNSIgY2xhc3M9ImVyIHJlbGF0aW9uc2hpcExhYmVsIj48L3RleHQ+PHJlY3QgaGVpZ2h0PSIwIiB3aWR0aD0iMCIgeT0iNTE2LjgzNjY2OTkyMTg3NSIgeD0iNjQ5LjA4MjAzMTI1IiBjbGFzcz0iZXIgcmVsYXRpb25zaGlwTGFiZWxCb3giPjwvcmVjdD48dGV4dCBzdHlsZT0idGV4dC1hbmNob3I6IG1pZGRsZTsgZG9taW5hbnQtYmFzZWxpbmU6IG1pZGRsZTsgZm9udC1zaXplOiAxMnB4OyIgeT0iNTE2LjgzNjY2OTkyMTg3NSIgeD0iNjQ5LjA4MjAzMTI1IiBpZD0icmVsNiIgY2xhc3M9ImVyIHJlbGF0aW9uc2hpcExhYmVsIj48L3RleHQ+PHJlY3QgaGVpZ2h0PSIwIiB3aWR0aD0iMCIgeT0iODMxLjA5OTk3NTU4NTkzNzUiIHg9Ijc1Ny4yOTk5ODc3OTI5Njg4IiBjbGFzcz0iZXIgcmVsYXRpb25zaGlwTGFiZWxCb3giPjwvcmVjdD48dGV4dCBzdHlsZT0idGV4dC1hbmNob3I6IG1pZGRsZTsgZG9taW5hbnQtYmFzZWxpbmU6IG1pZGRsZTsgZm9udC1zaXplOiAxMnB4OyIgeT0iODMxLjA5OTk3NTU4NTkzNzUiIHg9Ijc1Ny4yOTk5ODc3OTI5Njg4IiBpZD0icmVsNyIgY2xhc3M9ImVyIHJlbGF0aW9uc2hpcExhYmVsIj48L3RleHQ+PC9zdmc+;points=[[0,0,0,0,0],[0,0.25,0,0,0],[0,0.5,0,0,0],[0,0.75,0,0,0],[0,1,0,0,0],[0.25,0,0,0,0],[0.25,1,0,0,0],[0.5,0,0,0,0],[0.5,1,0,0,0],[0.75,0,0,0,0],[0.75,1,0,0,0],[1,0,0,0,0],[1,0.25,0,0,0],[1,0.5,0,0,0],[1,0.75,0,0,0],[1,1,0,0,0]];" parent="1" vertex="1">
            <mxGeometry x="140" y="-1000" width="861.7109985351562" height="1007.2000122070312" as="geometry" />
          </mxCell>
        </UserObject>
      </root>
    </mxGraphModel>
  </diagram>
</mxfile>
